<svg width="16" height="16" viewBox="0 0 16 16" fill="none" xmlns="http://www.w3.org/2000/svg">
<path d="M11.0625 4.49988C13.2361 4.50229 14.9976 6.26376 15 8.43738C15 9.854 13.8161 11.8123 11.3827 14.4233C11.3 14.5122 11.184 14.5627 11.0625 14.5627C10.941 14.5627 10.825 14.5122 10.7423 14.4233C8.30888 11.8123 7.125 9.854 7.125 8.43738C7.12741 6.26376 8.88888 4.50229 11.0625 4.49988ZM11.0625 9.74988C11.7874 9.74988 12.375 9.16225 12.375 8.43738C12.375 7.7125 11.7874 7.12488 11.0625 7.12488C10.3376 7.12488 9.75 7.7125 9.75 8.43738C9.75 9.16225 10.3376 9.74988 11.0625 9.74988ZM4.0625 0.999878C5.75387 0.999878 7.125 2.37101 7.125 4.06238C7.125 5.15088 6.22988 6.67688 4.388 8.72963C4.30502 8.82202 4.18669 8.8748 4.0625 8.8748C3.93831 8.8748 3.81998 8.82202 3.737 8.72963C1.89513 6.67688 1 5.15088 1 4.06238C1 2.37101 2.37113 0.999878 4.0625 0.999878ZM4.0625 4.93738C4.29456 4.93738 4.51712 4.84519 4.68122 4.6811C4.84531 4.517 4.9375 4.29444 4.9375 4.06238C4.9375 3.57913 4.54575 3.18738 4.0625 3.18738C3.57925 3.18738 3.1875 3.57913 3.1875 4.06238C3.1875 4.54563 3.57925 4.93738 4.0625 4.93738ZM7.125 14.9999C4.70995 14.997 2.75289 13.0399 2.75 10.6249C2.75 10.1416 3.14175 9.74988 3.625 9.74988C4.10825 9.74988 4.5 10.1416 4.5 10.6249C4.5 12.0746 5.67525 13.2499 7.125 13.2499C7.60825 13.2499 8 13.6416 8 14.1249C8 14.6081 7.60825 14.9999 7.125 14.9999Z" fill="white"/>
</svg>
