<svg width="56" height="24" viewBox="0 0 56 24" fill="none" xmlns="http://www.w3.org/2000/svg">
<path d="M12 23C18.0751 23 23 18.0751 23 12C23 5.92487 18.0751 1 12 1C5.92487 1 1 5.92487 1 12C1 18.0751 5.92487 23 12 23Z" fill="#008000" stroke="white" stroke-width="2"/>
<path d="M28 23C34.0751 23 39 18.0751 39 12C39 5.92487 34.0751 1 28 1C21.9249 1 17 5.92487 17 12C17 18.0751 21.9249 23 28 23Z" fill="#FFFF00" stroke="white" stroke-width="2"/>
<path d="M44 23C50.0751 23 55 18.0751 55 12C55 5.92487 50.0751 1 44 1C37.9249 1 33 5.92487 33 12C33 18.0751 37.9249 23 44 23Z" fill="#FF0000" stroke="white" stroke-width="2"/>
</svg>
