<svg width="48" height="48" viewBox="0 0 48 48" fill="none" xmlns="http://www.w3.org/2000/svg">
<rect opacity="0.2" width="48" height="48" rx="16" fill="white"/>
<path d="M20.3333 22.1667C19.3208 22.1667 18.5 21.3459 18.5 20.3333C18.5 19.3208 19.3208 18.5 20.3333 18.5C21.3459 18.5 22.1667 19.3208 22.1667 20.3333C22.1667 21.3459 21.3459 22.1667 20.3333 22.1667ZM27.6667 22.1667C26.6541 22.1667 25.8333 21.3459 25.8333 20.3333C25.8333 19.3208 26.6541 18.5 27.6667 18.5C28.6792 18.5 29.5 19.3208 29.5 20.3333C29.5 21.3459 28.6792 22.1667 27.6667 22.1667ZM20.3333 29.5C19.3208 29.5 18.5 28.6792 18.5 27.6667C18.5 26.6541 19.3208 25.8333 20.3333 25.8333C21.3459 25.8333 22.1667 26.6541 22.1667 27.6667C22.1667 28.6792 21.3459 29.5 20.3333 29.5ZM27.6667 29.5C26.6541 29.5 25.8333 28.6792 25.8333 27.6667C25.8333 26.6541 26.6541 25.8333 27.6667 25.8333C28.6792 25.8333 29.5 26.6541 29.5 27.6667C29.5 28.6792 28.6792 29.5 27.6667 29.5ZM13.9167 21.25C13.4104 21.25 13 20.8396 13 20.3333C13 19.8271 13.4104 19.4167 13.9167 19.4167C14.4229 19.4167 14.8333 19.8271 14.8333 20.3333C14.8333 20.8396 14.4229 21.25 13.9167 21.25ZM13.9167 28.5833C13.4104 28.5833 13 28.1729 13 27.6667C13 27.1604 13.4104 26.75 13.9167 26.75C14.4229 26.75 14.8333 27.1604 14.8333 27.6667C14.8333 28.1729 14.4229 28.5833 13.9167 28.5833ZM34.0833 21.25C33.5771 21.25 33.1667 20.8396 33.1667 20.3333C33.1667 19.8271 33.5771 19.4167 34.0833 19.4167C34.5896 19.4167 35 19.8271 35 20.3333C35 20.8396 34.5896 21.25 34.0833 21.25ZM34.0833 28.5833C33.5771 28.5833 33.1667 28.1729 33.1667 27.6667C33.1667 27.1604 33.5771 26.75 34.0833 26.75C34.5896 26.75 35 27.1604 35 27.6667C35 28.1729 34.5896 28.5833 34.0833 28.5833ZM20.3333 14.8333C19.8271 14.8333 19.4167 14.4229 19.4167 13.9167C19.4167 13.4104 19.8271 13 20.3333 13C20.8396 13 21.25 13.4104 21.25 13.9167C21.25 14.4229 20.8396 14.8333 20.3333 14.8333ZM27.6667 14.8333C27.1604 14.8333 26.75 14.4229 26.75 13.9167C26.75 13.4104 27.1604 13 27.6667 13C28.1729 13 28.5833 13.4104 28.5833 13.9167C28.5833 14.4229 28.1729 14.8333 27.6667 14.8333ZM20.3333 35C19.8271 35 19.4167 34.5896 19.4167 34.0833C19.4167 33.5771 19.8271 33.1667 20.3333 33.1667C20.8396 33.1667 21.25 33.5771 21.25 34.0833C21.25 34.5896 20.8396 35 20.3333 35ZM27.6667 35C27.1604 35 26.75 34.5896 26.75 34.0833C26.75 33.5771 27.1604 33.1667 27.6667 33.1667C28.1729 33.1667 28.5833 33.5771 28.5833 34.0833C28.5833 34.5896 28.1729 35 27.6667 35Z" fill="white"/>
</svg>
