<svg width="48" height="48" viewBox="0 0 48 48" fill="none" xmlns="http://www.w3.org/2000/svg">
<rect width="48" height="48" rx="16" fill="#FFE8DA"/>
<path d="M24 14C18.4858 14 14 18.4858 14 24C14 29.5142 18.4858 34 24 34C29.5142 34 34 29.5142 34 24C34 18.4858 29.5142 14 24 14ZM26.215 29.2367C25.6642 29.4533 23.755 30.365 22.655 29.3958C22.3267 29.1075 22.1633 28.7417 22.1633 28.2975C22.1633 27.4658 22.4367 26.7408 22.9292 25C23.0158 24.6708 23.1217 24.2442 23.1217 23.9058C23.1217 23.3217 22.9 23.1667 22.2992 23.1667C22.0058 23.1667 21.6808 23.2708 21.3867 23.3808L21.5492 22.715C22.205 22.4483 23.0283 22.1233 23.7333 22.1233C24.7908 22.1233 25.5692 22.6508 25.5692 23.6542C25.5692 23.9433 25.5192 24.45 25.4142 24.8L24.8058 26.9517C24.68 27.3867 24.4525 28.3458 24.805 28.63C25.1517 28.9108 25.9725 28.7617 26.3775 28.5708L26.215 29.2367ZM25.21 20.6667C24.52 20.6667 23.96 20.1067 23.96 19.4167C23.96 18.7267 24.52 18.1667 25.21 18.1667C25.9 18.1667 26.46 18.7267 26.46 19.4167C26.46 20.1067 25.9 20.6667 25.21 20.6667Z" fill="#FFA26B"/>
</svg>
