<svg width="16" height="16" viewBox="0 0 16 16" fill="none" xmlns="http://www.w3.org/2000/svg">
<path d="M8 1.25999C4.65714 1.25999 2 3.91714 2 7.25999C2 8.88857 2.6 10.4314 3.8 11.5457C3.88571 11.6314 7.31429 14.7171 7.4 14.8029C7.74286 15.06 8.25714 15.06 8.51429 14.8029C8.6 14.7171 12.1143 11.6314 12.1143 11.5457C13.3143 10.4314 13.9143 8.88857 13.9143 7.25999C14 3.91714 11.3429 1.25999 8 1.25999ZM8 8.97428C7.05714 8.97428 6.28571 8.20285 6.28571 7.25999C6.28571 6.31714 7.05714 5.54571 8 5.54571C8.94286 5.54571 9.71429 6.31714 9.71429 7.25999C9.71429 8.20285 8.94286 8.97428 8 8.97428Z" fill="white"/>
</svg>
