<svg width="48" height="48" viewBox="0 0 48 48" fill="none" xmlns="http://www.w3.org/2000/svg">
<rect opacity="0.2" width="48" height="48" rx="16" fill="white"/>
<path d="M25.0607 24L31.5303 30.4697C31.8232 30.7626 31.8232 31.2374 31.5303 31.5303C31.2374 31.8232 30.7626 31.8232 30.4697 31.5303L24 25.0607L17.5303 31.5303C17.2374 31.8232 16.7626 31.8232 16.4697 31.5303C16.1768 31.2374 16.1768 30.7626 16.4697 30.4697L22.9393 24L16.4697 17.5303C16.1768 17.2374 16.1768 16.7626 16.4697 16.4697C16.7626 16.1768 17.2374 16.1768 17.5303 16.4697L24 22.9393L30.4697 16.4697C30.7626 16.1768 31.2374 16.1768 31.5303 16.4697C31.8232 16.7626 31.8232 17.2374 31.5303 17.5303L25.0607 24Z" fill="white"/>
</svg>
