<svg width="32" height="32" viewBox="0 0 32 32" fill="none" xmlns="http://www.w3.org/2000/svg">
<path d="M16 32C24.8366 32 32 24.8366 32 16C32 7.16344 24.8366 0 16 0C7.16344 0 0 7.16344 0 16C0 24.8366 7.16344 32 16 32Z" fill="#F78807"/>
<path d="M16.7794 20.4062H19.0938C19.508 20.4062 19.8438 20.742 19.8438 21.1562C19.8438 21.5705 19.508 21.9062 19.0938 21.9062H14.9688C14.5545 21.9062 14.2188 21.5705 14.2188 21.1562V17.0312C14.2188 16.617 14.5545 16.2812 14.9688 16.2812C15.383 16.2812 15.7188 16.617 15.7188 17.0312V19.3456L20.6259 14.4384C20.9188 14.1455 21.3937 14.1455 21.6866 14.4384C21.9795 14.7313 21.9795 15.2062 21.6866 15.4991L16.7794 20.4062ZM15.2206 11.5938H12.9062C12.492 11.5938 12.1562 11.258 12.1562 10.8438C12.1562 10.4295 12.492 10.0938 12.9062 10.0938H17.0312C17.4455 10.0938 17.7812 10.4295 17.7812 10.8438V14.9688C17.7812 15.383 17.4455 15.7188 17.0312 15.7188C16.617 15.7188 16.2812 15.383 16.2812 14.9688V12.6544L11.3741 17.5616C11.0812 17.8545 10.6063 17.8545 10.3134 17.5616C10.0205 17.2687 10.0205 16.7938 10.3134 16.5009L15.2206 11.5938Z" fill="white"/>
</svg>
