<svg width="48" height="48" viewBox="0 0 48 48" fill="none" xmlns="http://www.w3.org/2000/svg">
<rect width="48" height="48" rx="16" fill="#FFA26B"/>
<path d="M24 20.3636C21.9909 20.3636 20.3636 21.9909 20.3636 24C20.3636 26.0091 21.9909 27.6364 24 27.6364C26.0091 27.6364 27.6364 26.0091 27.6364 24C27.6364 21.9909 26.0091 20.3636 24 20.3636ZM32.1273 23.0909C31.7091 19.3 28.7 16.2909 24.9091 15.8727V14H23.0909V15.8727C19.3 16.2909 16.2909 19.3 15.8727 23.0909H14V24.9091H15.8727C16.2909 28.7 19.3 31.7091 23.0909 32.1273V34H24.9091V32.1273C28.7 31.7091 31.7091 28.7 32.1273 24.9091H34V23.0909H32.1273ZM24 30.3636C20.4818 30.3636 17.6364 27.5182 17.6364 24C17.6364 20.4818 20.4818 17.6364 24 17.6364C27.5182 17.6364 30.3636 20.4818 30.3636 24C30.3636 27.5182 27.5182 30.3636 24 30.3636Z" fill="white"/>
</svg>
