<svg width="48" height="48" viewBox="0 0 48 48" fill="none" xmlns="http://www.w3.org/2000/svg">
<rect width="48" height="48" rx="16" fill="white"/>
<path d="M27.3333 30.8333H32.3333V32.5C32.3333 32.96 31.96 33.3333 31.5 33.3333H28.1667C27.7067 33.3333 27.3333 32.96 27.3333 32.5V30.8333ZM14.8333 30C14.3733 30 14 29.6267 14 29.1667V24.1667C14 23.9458 14.0875 23.7333 14.2442 23.5775L15.7475 22.0742L17.3583 15.6308C17.4508 15.26 17.7842 15 18.1667 15H29.8333C30.2158 15 30.5492 15.26 30.6417 15.6308L32.2525 22.0742L33.7558 23.5775C33.9125 23.7333 34 23.9458 34 24.1667V29.1667C34 29.6267 33.6267 30 33.1667 30H14.8333ZM30.6667 26.25C30.6667 25.56 30.1067 25 29.4167 25C28.7267 25 28.1667 25.56 28.1667 26.25C28.1667 26.94 28.7267 27.5 29.4167 27.5C30.1067 27.5 30.6667 26.94 30.6667 26.25ZM18.8175 16.6667L17.5675 21.6667H30.4325L29.1825 16.6667H18.8175ZM18.5833 25C17.8933 25 17.3333 25.56 17.3333 26.25C17.3333 26.94 17.8933 27.5 18.5833 27.5C19.2733 27.5 19.8333 26.94 19.8333 26.25C19.8333 25.56 19.2733 25 18.5833 25ZM15.6667 30.8333H20.6667V32.5C20.6667 32.96 20.2933 33.3333 19.8333 33.3333H16.5C16.04 33.3333 15.6667 32.96 15.6667 32.5V30.8333Z" fill="#FFA26B"/>
<path d="M24 44.335L26.8227 41.5123C27.092 41.243 27.5287 41.243 27.798 41.5123C28.0673 41.7817 28.0673 42.2183 27.798 42.4877L24.4877 45.798C24.2183 46.0673 23.7817 46.0673 23.5123 45.798L20.202 42.4877C19.9327 42.2183 19.9327 41.7817 20.202 41.5123C20.4713 41.243 20.908 41.243 21.1773 41.5123L24 44.335Z" fill="#E5E7FA"/>
</svg>
