<svg width="128" height="176" viewBox="0 0 128 176" fill="none" xmlns="http://www.w3.org/2000/svg">
<g filter="url(#filter0_d_559_4691)">
<rect x="64" y="57" width="48" height="48" rx="16" fill="white"/>
<path d="M88.8182 75.091C89.8182 75.091 90.6364 74.2728 90.6364 73.2728C90.6364 72.2728 89.8182 71.4546 88.8182 71.4546C87.8182 71.4546 87 72.2728 87 73.2728C87 74.2728 87.8182 75.091 88.8182 75.091ZM85.4545 78.1819L82.9091 91H84.8182L86.4545 83.7273L88.3636 85.5455V91H90.1818V84.1819L88.2727 82.3637L88.8182 79.6364C90 81 91.8182 81.9091 93.8182 81.9091V80.091C92.0909 80.091 90.6364 79.1819 89.9091 77.9091L89 76.4546C88.6364 75.9091 88.0909 75.5455 87.4545 75.5455C87.1818 75.5455 87 75.6364 86.7273 75.6364L82 77.6364V81.9091H83.8182V78.8182L85.4545 78.1819Z" fill="#FFA26B"/>
</g>
<defs>
<filter id="filter0_d_559_4691" x="0" y="0" width="176" height="176" filterUnits="userSpaceOnUse" color-interpolation-filters="sRGB">
<feFlood flood-opacity="0" result="BackgroundImageFix"/>
<feColorMatrix in="SourceAlpha" type="matrix" values="0 0 0 0 0 0 0 0 0 0 0 0 0 0 0 0 0 0 127 0" result="hardAlpha"/>
<feOffset dy="7"/>
<feGaussianBlur stdDeviation="32"/>
<feColorMatrix type="matrix" values="0 0 0 0 0 0 0 0 0 0 0 0 0 0 0 0 0 0 0.07 0"/>
<feBlend mode="normal" in2="BackgroundImageFix" result="effect1_dropShadow_559_4691"/>
<feBlend mode="normal" in="SourceGraphic" in2="effect1_dropShadow_559_4691" result="shape"/>
</filter>
</defs>
</svg>
