<svg width="32" height="32" viewBox="0 0 32 32" fill="none" xmlns="http://www.w3.org/2000/svg">
<g opacity="0.7">
<path opacity="0.7" d="M2.9259 8.57198C2.79634 8.57198 2.67087 8.50487 2.60142 8.38465C2.49871 8.20549 2.55999 7.97672 2.73857 7.87401L15.8051 0.333489C15.9866 0.229611 16.213 0.292055 16.3163 0.471216C16.4196 0.649793 16.3577 0.878559 16.1792 0.981854L3.11206 8.52179C3.05312 8.55564 2.98893 8.57198 2.9259 8.57198Z" fill="#FAFAFA"/>
<path opacity="0.7" d="M2.92585 23.674C2.79629 23.674 2.67082 23.6074 2.60196 23.4872C2.49866 23.3081 2.55936 23.0793 2.73852 22.976L28.8552 7.87394C29.0338 7.76948 29.2625 7.83134 29.3652 8.01108C29.4685 8.18966 29.4078 8.41843 29.2281 8.52172L3.11201 23.6238C3.05365 23.6576 2.98888 23.674 2.92585 23.674Z" fill="#FAFAFA"/>
<path opacity="0.7" d="M29.0408 8.572C28.9784 8.572 28.9136 8.55566 28.8553 8.52181L15.8051 0.981875C15.6271 0.87858 15.5652 0.649814 15.6691 0.470653C15.7713 0.292075 15.9989 0.229631 16.1792 0.33351L29.2282 7.87403C29.4073 7.97733 29.4686 8.20609 29.3653 8.38525C29.2959 8.50489 29.1704 8.572 29.0408 8.572Z" fill="#FAFAFA"/>
<path opacity="0.7" d="M29.0425 23.6741C28.9789 23.6741 28.9147 23.6577 28.8564 23.6239L2.73852 8.52181C2.55936 8.41851 2.49866 8.18975 2.60196 8.01117C2.70467 7.83201 2.93344 7.77073 3.11201 7.87403L29.2298 22.9761C29.409 23.0794 29.4697 23.3081 29.3664 23.4873C29.2975 23.6069 29.1721 23.6741 29.0425 23.6741Z" fill="#FAFAFA"/>
<path opacity="0.7" d="M15.9916 31.2336C15.9286 31.2336 15.8638 31.2173 15.8054 31.1834L2.73834 23.6236C2.55918 23.5203 2.49849 23.2916 2.60237 23.1124C2.70449 22.9338 2.93326 22.8726 3.11242 22.9759L16.1789 30.5356C16.3581 30.6389 16.4194 30.8683 16.3161 31.0469C16.2466 31.1671 16.1212 31.2336 15.9916 31.2336Z" fill="#FAFAFA"/>
<path opacity="0.7" d="M15.9928 31.2336C15.8632 31.2336 15.7383 31.1671 15.6689 31.0468C15.5656 30.8683 15.6263 30.6389 15.8048 30.5356L28.8556 22.9764C29.0353 22.8714 29.2624 22.9338 29.3662 23.1124C29.4701 23.2916 29.4088 23.5203 29.2308 23.6236L16.1795 31.1834C16.1206 31.2172 16.0564 31.2336 15.9928 31.2336Z" fill="#FAFAFA"/>
<path opacity="0.7" d="M2.92538 23.6739C2.71879 23.6739 2.55188 23.5065 2.55188 23.2999V8.19781C2.55188 7.99122 2.71879 7.82373 2.92538 7.82373C3.13197 7.82373 3.29945 7.99122 3.29945 8.19781V23.2999C3.29945 23.5065 3.13197 23.6739 2.92538 23.6739Z" fill="#FAFAFA"/>
<path opacity="0.7" d="M29.0431 23.6739C28.8365 23.6739 28.669 23.5065 28.669 23.2999L28.6678 8.19781C28.6678 7.99122 28.8353 7.82373 29.0419 7.82373C29.2485 7.82373 29.4154 7.99122 29.4154 8.19781L29.4166 23.2999C29.4166 23.5065 29.2497 23.6739 29.0431 23.6739Z" fill="#FAFAFA"/>
<path opacity="0.7" d="M15.9922 31.1906C15.7857 31.1906 15.6182 31.0231 15.6182 30.8165V0.657892C15.6182 0.451303 15.7857 0.283813 15.9922 0.283813C16.1988 0.283813 16.3663 0.451303 16.3663 0.657892V30.8165C16.3663 31.0231 16.1988 31.1906 15.9922 31.1906Z" fill="#FAFAFA"/>
</g>
<path d="M19.7931 3.51468C19.6822 3.51468 19.569 3.48609 19.4651 3.42598L15.9916 1.41552L12.5059 3.42656C12.1919 3.60747 11.7916 3.50009 11.6107 3.18612C11.4297 2.87215 11.5377 2.47065 11.8517 2.28973L15.6654 0.0896119C15.8679 -0.0276891 16.1171 -0.0276891 16.3208 0.0901954L20.1217 2.29032C20.4357 2.47181 20.5424 2.87274 20.3615 3.18671C20.2396 3.3968 20.0196 3.51468 19.7931 3.51468Z" fill="#F9F9F9"/>
<path d="M15.9923 20.8048C15.6305 20.8048 15.3369 20.5113 15.3369 20.1488V15.7486C15.3369 15.3862 15.6305 15.0927 15.9923 15.0927C16.3541 15.0927 16.6476 15.3862 16.6476 15.7486V20.1488C16.6476 20.5113 16.3541 20.8048 15.9923 20.8048Z" fill="#F9F9F9"/>
<path d="M2.92541 13.2521C2.56417 13.2521 2.27063 12.9586 2.27063 12.5962V8.1977C2.27063 7.83529 2.56417 7.54175 2.92541 7.54175C3.28724 7.54175 3.58078 7.83529 3.58078 8.1977V12.5962C3.58078 12.9586 3.28724 13.2521 2.92541 13.2521Z" fill="#F9F9F9"/>
<path d="M29.0427 13.2521C28.6808 13.2521 28.3873 12.9586 28.3873 12.5962L28.3867 8.1977C28.3867 7.83588 28.6803 7.54175 29.0421 7.54175C29.4033 7.54175 29.6969 7.83529 29.6969 8.1977L29.6975 12.5962C29.6975 12.9586 29.4039 13.2521 29.0427 13.2521Z" fill="#F9F9F9"/>
<path d="M29.0433 23.9559C28.6814 23.9559 28.3879 23.6629 28.3879 23.2999L28.3844 18.9014C28.3838 18.5396 28.6774 18.2455 29.0392 18.2455H29.0398C29.4016 18.2455 29.6951 18.5384 29.6951 18.9009L29.6981 23.2993C29.6992 23.6618 29.4051 23.9559 29.0439 23.9559H29.0433Z" fill="#F9F9F9"/>
<path d="M2.92541 23.9559C2.56417 23.9559 2.27063 23.6623 2.27063 23.2999V18.9014C2.27063 18.539 2.56417 18.2455 2.92541 18.2455C3.28724 18.2455 3.58078 18.539 3.58078 18.9014V23.2999C3.58078 23.6623 3.28724 23.9559 2.92541 23.9559Z" fill="#F9F9F9"/>
<path d="M15.9923 6.1094C15.6305 6.1094 15.3369 5.81586 15.3369 5.45345V0.657538C15.3369 0.295131 15.6305 0.00158691 15.9923 0.00158691C16.3541 0.00158691 16.6476 0.295131 16.6476 0.657538V5.45345C16.6476 5.81586 16.3541 6.1094 15.9923 6.1094Z" fill="#F9F9F9"/>
<path d="M15.9923 31.5153C15.6305 31.5153 15.3369 31.2218 15.3369 30.8594V26.4609C15.3369 26.0985 15.6305 25.8049 15.9923 25.8049C16.3541 25.8049 16.6476 26.0985 16.6476 26.4609V30.8594C16.6476 31.2218 16.3541 31.5153 15.9923 31.5153Z" fill="#F9F9F9"/>
<path d="M15.9923 31.5154C15.8796 31.5154 15.7658 31.4862 15.6643 31.4279L11.8371 29.2137C11.5238 29.0323 11.4164 28.6307 11.5985 28.3174C11.7788 28.0034 12.1797 27.8966 12.4937 28.0775L15.9923 30.102L19.4436 28.102C19.7564 27.9205 20.1579 28.0279 20.3394 28.3413C20.5209 28.6547 20.4135 29.0562 20.1001 29.2377L16.3203 31.4273C16.2199 31.4862 16.1055 31.5154 15.9923 31.5154Z" fill="#F9F9F9"/>
<path d="M15.9924 16.4046C15.8798 16.4046 15.7665 16.3754 15.6644 16.3171L11.8507 14.1158C11.5373 13.9343 11.4299 13.5333 11.6108 13.2194C11.7929 12.9048 12.1921 12.7992 12.506 12.9784L15.9918 14.9911L19.4653 12.9795C19.7805 12.798 20.1796 12.9048 20.3611 13.2188C20.5426 13.5322 20.4352 13.9337 20.1219 14.1152L16.3204 16.3165C16.22 16.3754 16.1056 16.4046 15.9924 16.4046Z" fill="#F9F9F9"/>
<path d="M25.2368 11.0546C25.0104 11.0546 24.7898 10.9373 24.669 10.7266C24.4875 10.4126 24.5943 10.0117 24.9088 9.83019L28.7144 7.62949C29.0272 7.44916 29.4287 7.55595 29.609 7.86934C29.7905 8.18389 29.6831 8.58482 29.3692 8.76631L25.5642 10.9664C25.4609 11.026 25.3483 11.0546 25.2368 11.0546Z" fill="#F9F9F9"/>
<path d="M29.0409 8.85415C28.9301 8.85415 28.8169 8.82556 28.7141 8.76603L24.9027 6.56358C24.5893 6.38266 24.482 5.98174 24.6623 5.66777C24.8444 5.3538 25.2459 5.24642 25.5581 5.42733L29.3689 7.62979C29.6829 7.8107 29.7903 8.21162 29.6099 8.52618C29.4886 8.73627 29.268 8.85415 29.0409 8.85415Z" fill="#F9F9F9"/>
<path d="M6.73304 11.0545C6.62157 11.0545 6.50894 11.0259 6.40565 10.9664L2.59774 8.76629C2.28494 8.5848 2.17698 8.18387 2.35789 7.8699C2.5388 7.55593 2.94148 7.44914 3.25311 7.62947L7.06101 9.83017C7.37498 10.0111 7.48236 10.4126 7.30145 10.7266C7.18007 10.9367 6.95947 11.0545 6.73304 11.0545Z" fill="#F9F9F9"/>
<path d="M2.926 8.85409C2.69957 8.85409 2.47897 8.7362 2.35759 8.52553C2.17726 8.21156 2.28464 7.81063 2.59861 7.62914L6.40301 5.43427C6.71523 5.25336 7.11674 5.36074 7.29765 5.67529C7.47856 5.98868 7.3706 6.39018 7.05721 6.5711L3.25281 8.76655C3.14952 8.82549 3.03688 8.85409 2.926 8.85409Z" fill="#F9F9F9"/>
<path d="M25.2294 26.1565C25.0024 26.1565 24.7818 26.0386 24.6604 25.8279C24.4801 25.514 24.5875 25.1125 24.9015 24.9321L28.7164 22.7314C29.0292 22.5499 29.4295 22.6579 29.611 22.9719C29.7913 23.2864 29.684 23.6873 29.37 23.8683L25.5557 26.069C25.453 26.1279 25.3397 26.1565 25.2294 26.1565Z" fill="#F9F9F9"/>
<path d="M29.0426 23.9562C28.9312 23.9562 28.8179 23.9276 28.7152 23.8681L24.9073 21.6673C24.5939 21.4864 24.486 21.0849 24.6675 20.771C24.8484 20.457 25.2511 20.3508 25.5627 20.5311L29.3706 22.7318C29.684 22.9127 29.7914 23.3142 29.611 23.6282C29.4897 23.8383 29.2691 23.9562 29.0426 23.9562Z" fill="#F9F9F9"/>
<path d="M6.73301 26.1591C6.62155 26.1591 6.50891 26.1305 6.40504 26.0709L2.59713 23.8679C2.28433 23.6864 2.17695 23.2855 2.35845 22.9715C2.53877 22.6581 2.94028 22.5513 3.25367 22.7317L7.06157 24.9347C7.37554 25.1162 7.48234 25.5171 7.30084 25.8311C7.18004 26.0412 6.95944 26.1591 6.73301 26.1591Z" fill="#F9F9F9"/>
<path d="M2.926 23.9561C2.69956 23.9561 2.47955 23.8388 2.35817 23.6281C2.17725 23.3147 2.28405 22.9132 2.59744 22.7323L6.39834 20.531C6.71347 20.3495 7.11265 20.4569 7.29414 20.7709C7.47564 21.0843 7.36826 21.4858 7.05487 21.6673L3.25397 23.868C3.15068 23.9275 3.03746 23.9561 2.926 23.9561Z" fill="#F9F9F9"/>
</svg>
