<svg width="24" height="24" viewBox="0 0 24 24" fill="none" xmlns="http://www.w3.org/2000/svg">
<g clip-path="url(#clip0_699_2303)">
<path d="M12 24C5.383 24 0 18.617 0 12C0 5.383 5.383 0 12 0C18.617 0 24 5.383 24 12C24 18.617 18.617 24 12 24ZM12 2C6.486 2 2 6.486 2 12C2 17.514 6.486 22 12 22C17.514 22 22 17.514 22 12C22 6.486 17.514 2 12 2Z" fill="#D0C9D6"/>
<path d="M9.23801 9.23795L5.09601 18.9039L14.762 14.7619L18.904 5.09595L9.23801 9.23795ZM8.90401 15.0959L10.762 10.7619L13.239 13.2389L8.90401 15.0959Z" fill="#ECEBED"/>
</g>
<defs>
<clipPath id="clip0_699_2303">
<rect width="24" height="24" fill="white"/>
</clipPath>
</defs>
</svg>
