<svg width="22" height="24" viewBox="0 0 22 24" fill="none" xmlns="http://www.w3.org/2000/svg">
<path d="M19.8 11.4C19.9 11.9 20 12.5 20 13C20 14.4 19.7 15.8 19.1 17C17.1 18.1 16.2 17.5 15.3 16.8C14.7 16.3 13.8 15.7 12.7 16.1C11.6 16.5 10.8 17.4 10.3 18.5C9.9 19.5 9.8 20.8 10 22C8 21.8 6.2 20.9 4.9 19.6C5.6 18.1 5.6 16.6 4.7 15.3C4.5 14.9 4.2 14.6 3.9 14.3C3.4 13.8 3.6 12.9 4.2 12.6C5 12.2 5.9 11.8 6.5 11C7.7 9.19998 6.3 6.59998 6 6.09998C5.9 5.99998 5.8 5.89998 5.7 5.69998C6.7 4.99998 7.8 4.49998 9 4.19998C9.1 3.39998 9.3 2.69998 9.6 2.09998C4.2 2.79998 0 7.39998 0 13C0 19.1 4.9 24 11 24C17.1 24 22 19.1 22 13C22 11.8 21.8 10.6 21.4 9.39998C20.9 10.1 20.4 10.8 19.8 11.4Z" fill="#D0C9D6"/>
<path d="M16 0C13.5 0 11 1.9 11 5C11 7.8 14.9 11.4 15.3 11.7C15.5 11.9 15.7 12 16 12C16.3 12 16.5 11.9 16.7 11.7C17.1 11.4 21 7.8 21 5C21 1.9 18.5 0 16 0ZM16 7C14.9 7 14 6.1 14 5C14 3.9 14.9 3 16 3C17.1 3 18 3.9 18 5C18 6.1 17.1 7 16 7Z" fill="#ECEBED"/>
</svg>
