<svg width="24" height="24" viewBox="0 0 24 24" fill="none" xmlns="http://www.w3.org/2000/svg">
<path d="M20.8 11.4001C20.9 11.9001 21 12.5001 21 13.0001C21 14.4001 20.7 15.8001 20.1 17.0001C18.1 18.1001 17.2 17.5001 16.3 16.8001C15.7 16.3001 14.8 15.7001 13.7 16.1001C12.6 16.5001 11.8 17.4001 11.3 18.5001C10.9 19.5001 10.8 20.8001 11 22.0001C9 21.8001 7.2 20.9001 5.9 19.6001C6.6 18.1001 6.6 16.6001 5.7 15.3001C5.5 14.9001 5.2 14.6001 4.9 14.3001C4.4 13.8001 4.6 12.9001 5.2 12.6001C6 12.2001 6.9 11.8001 7.5 11.0001C8.7 9.2001 7.3 6.6001 7 6.1001C6.9 6.0001 6.8 5.9001 6.7 5.7001C7.7 5.0001 8.8 4.5001 10 4.2001C10.1 3.4001 10.3 2.7001 10.6 2.1001C5.2 2.8001 1 7.4001 1 13.0001C1 19.1001 5.9 24.0001 12 24.0001C18.1 24.0001 23 19.1001 23 13.0001C23 11.8001 22.8 10.6001 22.4 9.4001C21.9 10.1001 21.4 10.8001 20.8 11.4001Z" fill="#FFC7A6"/>
<path d="M17 0C14.5 0 12 1.9 12 5C12 7.8 15.9 11.4 16.3 11.7C16.5 11.9 16.7 12 17 12C17.3 12 17.5 11.9 17.7 11.7C18.1 11.4 22 7.8 22 5C22 1.9 19.5 0 17 0ZM17 7C15.9 7 15 6.1 15 5C15 3.9 15.9 3 17 3C18.1 3 19 3.9 19 5C19 6.1 18.1 7 17 7Z" fill="#FFA26B"/>
</svg>
