<svg width="120" height="180" viewBox="0 0 120 180" fill="none" xmlns="http://www.w3.org/2000/svg">
<g opacity="0.2">
<path fill-rule="evenodd" clip-rule="evenodd" d="M111.944 141.93C118.244 145.35 118.244 150.93 112.034 154.35L71.3538 176.67C65.0538 180.09 54.8838 180.09 48.5838 176.67L7.63377 154.35C1.33377 150.93 1.33377 145.35 7.54377 141.93L48.2238 119.61C54.5238 116.19 64.6938 116.19 70.9938 119.61L111.944 141.93Z" fill="#606060"/>
</g>
<path fill-rule="evenodd" clip-rule="evenodd" d="M113.6 139.41V140.31C113.6 140.4 113.6 140.49 113.51 140.49C113.42 140.49 113.51 140.58 113.42 140.67C113.41 140.738 113.379 140.801 113.33 140.85C113.33 140.94 113.24 140.94 113.24 141.03C113.24 141.12 113.15 141.21 113.15 141.3C113.15 141.39 113.06 141.39 113.06 141.48C113.06 141.57 112.97 141.66 112.97 141.75C112.97 141.84 112.88 141.84 112.88 141.93C112.88 142.02 112.79 142.11 112.7 142.2C112.61 142.29 112.61 142.29 112.61 142.38C112.61 142.47 112.43 142.56 112.43 142.65L112.34 142.74C112.25 142.92 112.07 143.01 111.98 143.19L111.89 143.28C111.8 143.37 111.71 143.55 111.53 143.64L111.35 143.82C111.26 143.91 111.17 143.91 111.17 144C111.17 144.09 110.99 144.09 110.99 144.18C110.99 144.27 110.81 144.27 110.72 144.36C110.63 144.45 110.54 144.45 110.45 144.54C110.36 144.63 110.27 144.63 110.18 144.72C110.09 144.81 110 144.81 109.91 144.9C109.82 144.99 109.73 144.99 109.64 145.08C109.541 145.175 109.415 145.237 109.28 145.26L70.85 167.58C70.49 167.76 70.22 167.94 69.86 168.12C69.77 168.12 69.68 168.21 69.59 168.21C69.23 168.39 68.96 168.48 68.6 168.66C68.5503 168.66 68.51 168.7 68.51 168.75C68.1646 168.91 67.8023 169.031 67.43 169.11C67.1712 169.213 66.8978 169.273 66.62 169.29C66.4136 169.362 66.2032 169.422 65.99 169.47C65.72 169.56 65.45 169.56 65.18 169.65C64.91 169.74 64.73 169.74 64.55 169.74H64.28C63.92 169.83 63.56 169.83 63.2 169.92H62.93C62.716 169.906 62.5014 169.936 62.3 170.01C61.94 170.01 61.58 170.1 61.31 170.1H58.34C58.0965 170.115 57.8524 170.084 57.62 170.01C57.35 170.01 57.08 169.92 56.9 169.92C56.72 169.92 56.45 169.83 56.18 169.83C55.9022 169.813 55.6287 169.753 55.37 169.65C55.19 169.65 54.92 169.56 54.74 169.56C54.38 169.47 54.11 169.38 53.84 169.29C53.57 169.2 53.39 169.2 53.21 169.11C53.03 169.02 53.03 169.02 52.85 169.02C52.5357 168.939 52.2332 168.818 51.95 168.66C51.86 168.66 51.77 168.57 51.68 168.57C51.3946 168.488 51.1219 168.367 50.87 168.21C50.78 168.12 50.6 168.12 50.51 168.03L49.43 167.49L10.73 145.17C7.75998 143.46 6.22998 141.21 6.22998 138.87V143.01C6.22998 145.26 7.75998 147.51 10.73 149.31L49.43 171.63L50.51 172.17C50.6 172.26 50.78 172.26 50.87 172.35C51.14 172.44 51.32 172.53 51.59 172.62H51.68C51.77 172.62 51.86 172.71 51.95 172.71C52.2643 172.791 52.5668 172.912 52.85 173.07C52.94 173.07 53.03 173.16 53.21 173.16C53.2782 173.17 53.3414 173.201 53.39 173.25C53.48 173.25 53.66 173.34 53.75 173.34L54.65 173.61C54.7489 173.598 54.848 173.631 54.92 173.7C55.0468 173.687 55.1744 173.718 55.28 173.79C55.55 173.88 55.82 173.88 56.09 173.97C56.216 173.966 56.3406 173.997 56.45 174.06H56.81C57.08 174.06 57.35 174.15 57.53 174.15H61.22C61.5526 174.169 61.8862 174.139 62.21 174.06H63.11C63.476 174.044 63.8386 173.984 64.19 173.88H64.55C64.7016 173.859 64.8519 173.829 65 173.79C65.27 173.7 65.54 173.7 65.81 173.61C66.0164 173.538 66.2267 173.478 66.44 173.43C66.6987 173.327 66.9722 173.267 67.25 173.25C67.34 173.25 67.34 173.25 67.43 173.16C67.7443 173.079 68.0468 172.958 68.33 172.8C68.3797 172.8 68.42 172.76 68.42 172.71C68.7659 172.598 69.098 172.447 69.41 172.26C69.5 172.26 69.59 172.17 69.68 172.17C70.0201 172.009 70.3506 171.829 70.67 171.63L109.1 149.31C109.19 149.31 109.19 149.22 109.28 149.22C109.37 149.22 109.37 149.13 109.46 149.13C109.55 149.13 109.64 149.04 109.73 148.95C109.82 148.86 109.91 148.86 110 148.77C110.09 148.68 110.18 148.68 110.27 148.59C110.36 148.5 110.45 148.5 110.54 148.41C110.63 148.32 110.72 148.32 110.81 148.23C110.9 148.14 110.99 148.14 110.99 148.05C110.99 147.96 111.17 147.96 111.17 147.87L111.26 147.78L111.35 147.69L111.71 147.33L111.8 147.24C111.946 147.113 112.069 146.961 112.16 146.79L112.25 146.7C112.34 146.61 112.43 146.52 112.43 146.43C112.43 146.34 112.52 146.34 112.52 146.25C112.52 146.16 112.61 146.07 112.7 145.98C112.76 145.92 112.82 145.86 112.88 145.8C112.88 145.71 112.97 145.62 112.97 145.53C112.97 145.44 113.06 145.44 113.06 145.35C113.06 145.26 113.15 145.17 113.15 145.08V144.9C113.159 144.832 113.191 144.769 113.24 144.72C113.24 144.63 113.24 144.63 113.33 144.54C113.42 144.45 113.33 144.36 113.42 144.36V139.14C113.6 139.23 113.6 139.32 113.6 139.41Z" fill="#FF7E06"/>
<path fill-rule="evenodd" clip-rule="evenodd" d="M109.1 132.84C115.04 136.26 115.13 141.84 109.19 145.26L70.7596 167.58C64.8196 171 55.1896 171 49.2496 167.58L10.5496 145.26C4.60957 141.84 4.51957 136.26 10.4596 132.84L48.8896 110.52C54.8296 107.1 64.4596 107.1 70.3996 110.52L109.1 132.84Z" fill="url(#paint0_linear_845_1534)"/>
<path fill-rule="evenodd" clip-rule="evenodd" d="M85.5738 138.33C84.8538 141.57 82.3338 144.63 78.1038 147.15C67.7538 153.18 51.0138 153.18 40.5738 147.15C36.2538 144.63 33.7338 141.48 33.0138 138.24C31.9338 133.65 34.4538 128.88 40.4838 125.37C50.8338 119.34 67.6638 119.34 78.0138 125.37C84.0438 128.88 86.5998 133.74 85.5738 138.33Z" fill="#D2CDC9"/>
<path fill-rule="evenodd" clip-rule="evenodd" d="M85.5737 138.33C84.8537 141.57 82.3337 144.63 78.1037 147.15C67.7537 153.18 51.0137 153.18 40.5737 147.15C36.2537 144.63 33.7337 141.48 33.0137 138.24C33.7337 135 36.2537 131.94 40.4837 129.42C50.8337 123.39 67.6637 123.39 78.0137 129.42C82.2437 131.94 84.8537 135.09 85.5737 138.33Z" fill="url(#paint1_linear_845_1534)"/>
<path fill-rule="evenodd" clip-rule="evenodd" d="M61.0935 16.74L91.0635 36.09L89.5335 71.73L59.5635 52.38L61.0935 16.74Z" fill="url(#paint2_linear_845_1534)"/>
<path opacity="0.2" d="M59.5636 52.38L89.5336 71.73L57.6736 88.2L27.7036 68.94L59.5636 52.38Z" fill="url(#paint3_linear_845_1534)"/>
<path opacity="0.3" d="M61.0936 16.74L59.5636 52.38L27.7036 68.94L29.2336 33.21L61.0936 16.74Z" fill="url(#paint4_linear_845_1534)"/>
<path fill-rule="evenodd" clip-rule="evenodd" d="M62.1738 1.53003L105.014 29.16L102.854 80.1L59.9238 52.47L62.1738 1.53003V1.53003Z" stroke="#B5BDFC" stroke-width="0.28"/>
<path fill-rule="evenodd" clip-rule="evenodd" d="M59.9236 52.47L102.854 80.1L57.3136 103.68L14.4736 76.05L59.9236 52.47V52.47Z" stroke="#B5BDFC" stroke-width="0.28"/>
<path fill-rule="evenodd" clip-rule="evenodd" d="M62.1736 1.53003L59.9236 52.47L14.4736 76.05L16.6336 25.11L62.1736 1.53003V1.53003Z" stroke="#B5BDFC" stroke-width="0.28"/>
<path fill-rule="evenodd" clip-rule="evenodd" d="M14.0237 77.76C14.8686 77.76 15.5537 77.0749 15.5537 76.23C15.5537 75.385 14.8686 74.7 14.0237 74.7C13.1787 74.7 12.4937 75.385 12.4937 76.23C12.4937 77.0749 13.1787 77.76 14.0237 77.76Z" fill="#B6BDFC"/>
<path fill-rule="evenodd" clip-rule="evenodd" d="M16.634 26.64C17.479 26.64 18.164 25.955 18.164 25.11C18.164 24.265 17.479 23.58 16.634 23.58C15.789 23.58 15.104 24.265 15.104 25.11C15.104 25.955 15.789 26.64 16.634 26.64Z" fill="#B6BDFC"/>
<path fill-rule="evenodd" clip-rule="evenodd" d="M59.6535 53.82C60.4985 53.82 61.1835 53.135 61.1835 52.29C61.1835 51.445 60.4985 50.76 59.6535 50.76C58.8085 50.76 58.1235 51.445 58.1235 52.29C58.1235 53.135 58.8085 53.82 59.6535 53.82Z" fill="#B6BDFC"/>
<path fill-rule="evenodd" clip-rule="evenodd" d="M102.854 81.54C103.699 81.54 104.384 80.855 104.384 80.01C104.384 79.165 103.699 78.48 102.854 78.48C102.009 78.48 101.324 79.165 101.324 80.01C101.324 80.855 102.009 81.54 102.854 81.54Z" fill="#B6BDFC"/>
<path fill-rule="evenodd" clip-rule="evenodd" d="M62.1736 3.06C63.0186 3.06 63.7036 2.375 63.7036 1.53C63.7036 0.685004 63.0186 0 62.1736 0C61.3286 0 60.6436 0.685004 60.6436 1.53C60.6436 2.375 61.3286 3.06 62.1736 3.06Z" fill="#B6BDFC"/>
<path fill-rule="evenodd" clip-rule="evenodd" d="M57.134 105.3C57.979 105.3 58.664 104.615 58.664 103.77C58.664 102.925 57.979 102.24 57.134 102.24C56.289 102.24 55.604 102.925 55.604 103.77C55.604 104.615 56.289 105.3 57.134 105.3Z" fill="#B6BDFC"/>
<path fill-rule="evenodd" clip-rule="evenodd" d="M105.194 30.69C106.039 30.69 106.724 30.005 106.724 29.16C106.724 28.315 106.039 27.63 105.194 27.63C104.349 27.63 103.664 28.315 103.664 29.16C103.664 30.005 104.349 30.69 105.194 30.69Z" fill="#B6BDFC"/>
<path fill-rule="evenodd" clip-rule="evenodd" d="M48.854 124.02C48.854 123.324 48.2899 122.76 47.594 122.76C46.8981 122.76 46.334 123.324 46.334 124.02C46.3434 124.474 46.5983 124.888 47 125.1L47.63 164.7L48.26 125.1C48.6339 124.869 48.8594 124.459 48.854 124.02Z" fill="url(#paint5_linear_845_1534)"/>
<path fill-rule="evenodd" clip-rule="evenodd" d="M61.7239 109.71C61.7239 108.666 60.8777 107.82 59.8339 107.82C58.7901 107.82 57.9439 108.666 57.9439 109.71C57.9391 110.394 58.3228 111.022 58.9339 111.33L59.8339 168.57H59.7439L60.6439 111.33C61.3187 111.083 61.7558 110.428 61.7239 109.71Z" fill="url(#paint6_linear_845_1534)"/>
<path fill-rule="evenodd" clip-rule="evenodd" d="M73.1538 118.53C73.1538 117.834 72.5897 117.27 71.8938 117.27C71.1979 117.27 70.6338 117.834 70.6338 118.53C70.6359 118.977 70.876 119.388 71.2638 119.61L71.8938 159.21L72.5238 119.61C72.9295 119.407 73.1768 118.983 73.1538 118.53Z" fill="url(#paint7_linear_845_1534)"/>
<path fill-rule="evenodd" clip-rule="evenodd" d="M101.054 60.48H17.5337L32.7437 136.62C32.7592 137.134 32.8194 137.646 32.9237 138.15C33.6437 141.39 36.1637 144.54 40.4837 147.06C50.9237 153.09 67.6637 153.09 78.0137 147.06C82.2437 144.63 84.7637 141.48 85.4837 138.24C85.5881 137.706 85.6483 137.164 85.6637 136.62L101.054 60.48Z" fill="url(#paint8_linear_845_1534)"/>
<defs>
<linearGradient id="paint0_linear_845_1534" x1="171.573" y1="190.152" x2="171.573" y2="60.876" gradientUnits="userSpaceOnUse">
<stop stop-color="#EA9D57"/>
<stop offset="0.19" stop-color="#F18A2B"/>
<stop offset="0.41" stop-color="#F29D6D"/>
<stop offset="0.65" stop-color="#F07923"/>
<stop offset="0.89" stop-color="#EEC6A9"/>
<stop offset="1" stop-color="#FDFDFD"/>
</linearGradient>
<linearGradient id="paint1_linear_845_1534" x1="11.0445" y1="-457.65" x2="11.0445" y2="-408.492" gradientUnits="userSpaceOnUse">
<stop stop-color="#7348BF"/>
<stop offset="0.25" stop-color="#784AC1"/>
<stop offset="0.54" stop-color="#854FC8"/>
<stop offset="0.85" stop-color="#9C58D4"/>
<stop offset="1" stop-color="#AA5DDB"/>
</linearGradient>
<linearGradient id="paint2_linear_845_1534" x1="83.1584" y1="3.57306" x2="48.1837" y2="10.3872" gradientUnits="userSpaceOnUse">
<stop stop-color="#DCDCF0"/>
<stop offset="0.33" stop-color="#E1E1F2"/>
<stop offset="0.7" stop-color="#EEEEF8"/>
<stop offset="1" stop-color="white"/>
</linearGradient>
<linearGradient id="paint3_linear_845_1534" x1="57.6092" y1="36.2243" x2="27.5498" y2="88.1109" gradientUnits="userSpaceOnUse">
<stop stop-color="#CDDDF4"/>
<stop offset="1" stop-color="#CDBAFA"/>
</linearGradient>
<linearGradient id="paint4_linear_845_1534" x1="43.8535" y1="-6.80352" x2="-1.98917" y2="22.52" gradientUnits="userSpaceOnUse">
<stop stop-color="#CDDDF4"/>
<stop offset="1" stop-color="#CDBAFA"/>
</linearGradient>
<linearGradient id="paint5_linear_845_1534" x1="48.8726" y1="151.022" x2="42.4642" y2="149.514" gradientUnits="userSpaceOnUse">
<stop stop-color="white" stop-opacity="0.01"/>
<stop offset="1" stop-color="white" stop-opacity="0.8"/>
</linearGradient>
<linearGradient id="paint6_linear_845_1534" x1="59.3038" y1="-439.858" x2="49.5371" y2="-437.41" gradientUnits="userSpaceOnUse">
<stop stop-color="white" stop-opacity="0.01"/>
<stop offset="1" stop-color="white" stop-opacity="0.8"/>
</linearGradient>
<linearGradient id="paint7_linear_845_1534" x1="71.5507" y1="-433.679" x2="65.1364" y2="-432.168" gradientUnits="userSpaceOnUse">
<stop stop-color="white" stop-opacity="0.01"/>
<stop offset="1" stop-color="white" stop-opacity="0.8"/>
</linearGradient>
<linearGradient id="paint8_linear_845_1534" x1="13.6124" y1="62.388" x2="13.6124" y2="162.045" gradientUnits="userSpaceOnUse">
<stop stop-color="#F48C41" stop-opacity="0.01"/>
<stop offset="0.21" stop-color="#F08334" stop-opacity="0.21"/>
<stop offset="0.55" stop-color="#E28026" stop-opacity="0.55"/>
<stop offset="0.9899" stop-color="#F17D12"/>
<stop offset="0.99" stop-color="#F47A09" stop-opacity="0.99"/>
</linearGradient>
</defs>
</svg>
