<svg width="48" height="48" viewBox="0 0 48 48" fill="none" xmlns="http://www.w3.org/2000/svg">
<rect opacity="0.2" width="48" height="48" rx="16" fill="white"/>
<path d="M17.45 16.2634V28.1262L25.9024 32.7366V20.8738L17.45 16.2634ZM19.6412 15.75L27.0115 19.7702C27.2525 19.9016 27.4024 20.1541 27.4024 20.4286V27.8214H30.4262V15.75H19.6412ZM27.4024 34C27.4024 34.5693 26.793 34.931 26.2932 34.6584L16.3409 29.2299C16.0999 29.0984 15.95 28.8459 15.95 28.5714V15.0139C15.9487 14.9475 15.9562 14.8805 15.9731 14.8146C15.9746 14.8088 15.9761 14.8029 15.9778 14.7971C15.9928 14.7439 16.014 14.6915 16.0416 14.6409C16.0549 14.6164 16.0694 14.593 16.0849 14.5707C16.146 14.4834 16.2252 14.4096 16.3171 14.355C16.4062 14.3022 16.5053 14.2684 16.6077 14.2557C16.611 14.2552 16.6143 14.2548 16.6176 14.2545C16.6499 14.2509 16.6825 14.2494 16.7152 14.25H31.1762C31.5904 14.25 31.9262 14.5858 31.9262 15V28.5714C31.9262 28.9856 31.5904 29.3214 31.1762 29.3214H27.4024V34Z" fill="white"/>
</svg>
