<svg width="24" height="24" viewBox="0 0 24 24" fill="none" xmlns="http://www.w3.org/2000/svg">
<path d="M20.2721 10.7451C19.9614 10.4711 19.9317 9.99718 20.2057 9.68655C20.4797 9.37591 20.9537 9.34621 21.2643 9.62022C22.2018 10.4472 22.75 11.6357 22.75 12.9109V16.5472C22.75 18.9696 20.786 20.9336 18.3636 20.9336H10.1818C7.75942 20.9336 5.79545 18.9696 5.79545 16.5472V12.9109C5.79545 10.4885 7.75942 8.52449 10.1818 8.52449H13.8182C14.2324 8.52449 14.5682 8.86028 14.5682 9.27449C14.5682 9.68871 14.2324 10.0245 13.8182 10.0245H10.1818C8.58785 10.0245 7.29545 11.3169 7.29545 12.9109V16.5472C7.29545 18.1412 8.58785 19.4336 10.1818 19.4336H18.3636C19.9576 19.4336 21.25 18.1412 21.25 16.5472V12.9109C21.25 12.0707 20.89 11.2902 20.2721 10.7451ZM3.72794 13.2584C4.03858 13.5324 4.06828 14.0063 3.79428 14.317C3.52027 14.6276 3.04633 14.6573 2.73569 14.3833C1.79816 13.5563 1.25 12.3678 1.25 11.0927V7.45631C1.25 5.03391 3.21397 3.06995 5.63636 3.06995H13.8182C16.2406 3.06995 18.2045 5.03391 18.2045 7.45631V11.0927C18.2045 13.5151 16.2406 15.479 13.8182 15.479H10.1818C9.7676 15.479 9.43182 15.1433 9.43182 14.729C9.43182 14.3148 9.7676 13.979 10.1818 13.979H13.8182C15.4122 13.979 16.7045 12.6866 16.7045 11.0927V7.45631C16.7045 5.86234 15.4122 4.56995 13.8182 4.56995H5.63636C4.0424 4.56995 2.75 5.86234 2.75 7.45631V11.0927C2.75 11.9328 3.10995 12.7133 3.72794 13.2584Z" fill="white"/>
</svg>
