<svg width="40" height="40" viewBox="0 0 40 40" fill="none" xmlns="http://www.w3.org/2000/svg">
<rect y="0.868896" width="40" height="38.1365" rx="12" fill="#FFE8DA"/>
<path d="M26.3744 23.6358C26.7148 23.9779 26.7139 24.53 26.3726 24.8713L24.375 26.8689C18.0925 26.8689 13 21.7764 13 15.4939L13.0035 15.4965L15.0125 13.4884C15.3546 13.1463 15.9085 13.1463 16.2506 13.4884L18.5081 15.7494C18.8494 16.0915 18.8485 16.6454 18.5072 16.9866L16.5 18.9939L20.875 23.3689L22.8796 21.3643C23.2218 21.0221 23.7774 21.0221 24.1186 21.366L26.3744 23.6358ZM27 19.8689H25.25C25.25 16.9735 22.8954 14.6189 20 14.6189V12.8689C23.8596 12.8689 27 16.0093 27 19.8689ZM23.5 19.8689H21.75C21.75 18.9038 20.9651 18.1189 20 18.1189V16.3689C21.9303 16.3689 23.5 17.9386 23.5 19.8689Z" fill="#FFA26B"/>
</svg>
