<svg width="247" height="40" viewBox="0 0 247 40" fill="none" xmlns="http://www.w3.org/2000/svg">
<rect y="0.868896" width="247" height="38.1365" rx="12" fill="#FFE8DA"/>
<path d="M90.2368 20.0066H93.4805V24.5071C92.9938 24.6721 92.4924 24.7948 91.9761 24.8752C91.464 24.9556 90.8906 24.9958 90.2559 24.9958C89.291 24.9958 88.4764 24.8033 87.812 24.4182C87.1519 24.0331 86.6504 23.4851 86.3076 22.7742C85.9648 22.059 85.7935 21.2105 85.7935 20.2288C85.7935 19.2681 85.9818 18.4303 86.3584 17.7151C86.7393 16.9999 87.2873 16.4456 88.0024 16.052C88.7218 15.6542 89.5851 15.4553 90.5923 15.4553C91.1086 15.4553 91.5973 15.504 92.0586 15.6013C92.5241 15.6944 92.9557 15.8277 93.3535 16.0012L92.9409 16.9407C92.5981 16.7926 92.2194 16.6656 91.8047 16.5598C91.3942 16.454 90.9689 16.4011 90.5288 16.4011C89.7713 16.4011 89.1217 16.5577 88.5801 16.8708C88.0426 17.184 87.63 17.6262 87.3423 18.1975C87.0588 18.7688 86.917 19.4459 86.917 20.2288C86.917 21.0032 87.0418 21.6781 87.2915 22.2537C87.5412 22.825 87.9305 23.2693 88.4595 23.5867C88.9884 23.9041 89.6698 24.0627 90.5034 24.0627C90.9224 24.0627 91.2821 24.0395 91.5825 23.9929C91.883 23.9421 92.1559 23.8829 92.4014 23.8152V20.9714H90.2368V20.0066ZM100.895 24.8689H95.7275V15.5886H100.895V16.5408H96.8066V19.5432H100.66V20.4827H96.8066V23.9167H100.895V24.8689ZM105.801 24.8689H104.716V16.5408H101.796V15.5886H108.708V16.5408H105.801V24.8689ZM120.858 20.1399C120.858 21.1851 120.667 22.059 120.287 22.7615C119.906 23.4597 119.354 23.9866 118.63 24.342C117.91 24.6933 117.037 24.8689 116.008 24.8689H113.488V15.5886H116.288C117.231 15.5886 118.044 15.7621 118.725 16.1091C119.406 16.4519 119.931 16.9618 120.299 17.6389C120.672 18.3118 120.858 19.1454 120.858 20.1399ZM119.722 20.178C119.722 19.3443 119.582 18.6567 119.303 18.115C119.028 17.5733 118.621 17.1713 118.084 16.9089C117.551 16.6423 116.897 16.509 116.123 16.509H114.567V23.9421H115.881C117.159 23.9421 118.118 23.6269 118.757 22.9963C119.4 22.3658 119.722 21.4264 119.722 20.178ZM122.921 24.8689V15.5886H124V24.8689H122.921ZM129.059 15.5886C129.821 15.5886 130.449 15.6838 130.944 15.8743C131.444 16.0605 131.816 16.3461 132.062 16.7312C132.307 17.1163 132.43 17.6072 132.43 18.2039C132.43 18.6947 132.341 19.1052 132.163 19.4353C131.985 19.7611 131.753 20.0256 131.465 20.2288C131.177 20.4319 130.87 20.5885 130.544 20.6985L133.09 24.8689H131.833L129.561 20.9968H127.631V24.8689H126.552V15.5886H129.059ZM128.996 16.5217H127.631V20.0828H129.104C129.861 20.0828 130.417 19.9283 130.773 19.6194C131.133 19.3105 131.312 18.8556 131.312 18.2546C131.312 17.6241 131.122 17.1777 130.741 16.9153C130.365 16.6529 129.783 16.5217 128.996 16.5217ZM139.742 24.8689H134.575V15.5886H139.742V16.5408H135.654V19.5432H139.507V20.4827H135.654V23.9167H139.742V24.8689ZM145.766 16.4075C145.254 16.4075 144.793 16.4963 144.382 16.6741C143.976 16.8476 143.629 17.1015 143.341 17.4358C143.058 17.7659 142.84 18.1658 142.688 18.6355C142.535 19.1052 142.459 19.6342 142.459 20.2224C142.459 21.0011 142.58 21.6781 142.821 22.2537C143.066 22.825 143.43 23.2672 143.913 23.5803C144.399 23.8935 145.007 24.05 145.734 24.05C146.149 24.05 146.538 24.0162 146.902 23.9485C147.271 23.8765 147.628 23.7877 147.975 23.6819V24.6213C147.637 24.7483 147.281 24.8414 146.909 24.9006C146.536 24.9641 146.094 24.9958 145.582 24.9958C144.638 24.9958 143.849 24.8012 143.214 24.4119C142.584 24.0183 142.11 23.4639 141.792 22.7488C141.479 22.0336 141.323 21.1894 141.323 20.2161C141.323 19.5136 141.42 18.8725 141.615 18.2927C141.814 17.7087 142.101 17.2052 142.478 16.782C142.859 16.3588 143.324 16.033 143.875 15.8044C144.429 15.5717 145.064 15.4553 145.779 15.4553C146.249 15.4553 146.701 15.5019 147.137 15.595C147.573 15.6881 147.967 15.8214 148.318 15.9949L147.886 16.9089C147.59 16.7735 147.264 16.6571 146.909 16.5598C146.557 16.4583 146.177 16.4075 145.766 16.4075ZM152.837 24.8689H151.752V16.5408H148.832V15.5886H155.745V16.5408H152.837V24.8689ZM157.147 24.8689V15.5886H158.227V24.8689H157.147ZM168.827 20.2161C168.827 20.9312 168.736 21.5829 168.554 22.1711C168.372 22.7551 168.101 23.2587 167.742 23.6819C167.386 24.1008 166.944 24.4246 166.415 24.6531C165.886 24.8816 165.272 24.9958 164.574 24.9958C163.855 24.9958 163.226 24.8816 162.689 24.6531C162.156 24.4246 161.711 24.0987 161.356 23.6755C161.005 23.2524 160.74 22.7467 160.562 22.1584C160.389 21.5702 160.302 20.9185 160.302 20.2034C160.302 19.2555 160.459 18.4239 160.772 17.7087C161.085 16.9936 161.559 16.4371 162.194 16.0393C162.833 15.6415 163.633 15.4426 164.593 15.4426C165.512 15.4426 166.284 15.6394 166.91 16.033C167.541 16.4265 168.017 16.9809 168.338 17.696C168.664 18.407 168.827 19.247 168.827 20.2161ZM161.438 20.2161C161.438 21.0032 161.551 21.6845 161.775 22.26C161.999 22.8355 162.342 23.2799 162.803 23.593C163.269 23.9062 163.859 24.0627 164.574 24.0627C165.294 24.0627 165.882 23.9062 166.339 23.593C166.8 23.2799 167.141 22.8355 167.361 22.26C167.581 21.6845 167.691 21.0032 167.691 20.2161C167.691 19.0185 167.439 18.0833 166.936 17.4104C166.436 16.7333 165.655 16.3948 164.593 16.3948C163.874 16.3948 163.281 16.5492 162.816 16.8582C162.35 17.1671 162.003 17.6072 161.775 18.1785C161.551 18.7455 161.438 19.4247 161.438 20.2161ZM178.152 24.8689H176.908L171.849 17.074H171.798C171.811 17.2813 171.825 17.5183 171.842 17.7849C171.859 18.0473 171.872 18.3287 171.88 18.6292C171.893 18.9254 171.899 19.2279 171.899 19.5369V24.8689H170.896V15.5886H172.134L177.174 23.3582H177.219C177.21 23.21 177.2 23.0006 177.187 22.7297C177.174 22.4547 177.162 22.1606 177.149 21.8474C177.14 21.53 177.136 21.2359 177.136 20.9651V15.5886H178.152V24.8689Z" fill="#FFA26B"/>
<path d="M62.8056 17.2578L73.6945 14.1467C74.3167 13.9912 74.8611 14.5356 74.7056 15.1578L71.5945 26.0467C71.3611 26.7467 70.4278 26.8245 70.1167 26.1245L67.9389 20.9912L62.8056 18.8134C62.0278 18.4245 62.1056 17.4912 62.8056 17.2578Z" fill="#FFA26B"/>
</svg>
