<svg width="40" height="40" viewBox="0 0 40 40" fill="none" xmlns="http://www.w3.org/2000/svg">
<rect y="0.868896" width="40" height="38.1365" rx="12" fill="#FFE8DA"/>
<g clip-path="url(#clip0_220_173)">
<path d="M26.125 17.3689C26.608 17.3689 27 17.7609 27 18.2439V24.3689C27 24.8519 26.608 25.2439 26.125 25.2439H24.375V27.8689L21.75 25.2439H17.375L18.9745 23.4939H24.375C24.858 23.4939 25.25 23.1019 25.25 22.6189V17.3689H26.125ZM13.875 13.8689H22.625C23.108 13.8689 23.5 14.2609 23.5 14.7439V20.8689C23.5 21.3519 23.108 21.7439 22.625 21.7439H18.25L15.625 24.3689V21.7439H13.875C13.392 21.7439 13 21.3519 13 20.8689V14.7439C13 14.2609 13.392 13.8689 13.875 13.8689Z" fill="#FFA26B"/>
</g>
<defs>
<clipPath id="clip0_220_173">
<rect width="16" height="16" fill="white" transform="translate(12 11.8689)"/>
</clipPath>
</defs>
</svg>
