<svg width="115" height="180" viewBox="0 0 115 180" fill="none"
    xmlns="http://www.w3.org/2000/svg">
    <g opacity="0.2">
        <path fill-rule="evenodd" clip-rule="evenodd" d="M109.944 141.93C116.244 145.35 116.244 150.93 110.034 154.35L69.3538 176.67C63.0538 180.09 52.8838 180.09 46.5838 176.67L5.63377 154.35C-0.666229 150.93 -0.666228 145.35 5.54377 141.93L46.2238 119.61C52.5238 116.19 62.6938 116.19 68.9938 119.61L109.944 141.93Z" fill="#606060"/>
    </g>
    <path fill-rule="evenodd" clip-rule="evenodd" d="M111.6 139.41V140.31C111.6 140.4 111.6 140.49 111.51 140.49C111.42 140.49 111.51 140.58 111.42 140.67C111.41 140.738 111.379 140.801 111.33 140.85C111.33 140.94 111.24 140.94 111.24 141.03C111.24 141.12 111.15 141.21 111.15 141.3C111.15 141.39 111.06 141.39 111.06 141.48C111.06 141.57 110.97 141.66 110.97 141.75C110.97 141.84 110.88 141.84 110.88 141.93C110.88 142.02 110.79 142.11 110.7 142.2C110.61 142.29 110.61 142.29 110.61 142.38C110.61 142.47 110.43 142.56 110.43 142.65L110.34 142.74C110.25 142.92 110.07 143.01 109.98 143.19L109.89 143.28C109.8 143.37 109.71 143.55 109.53 143.64L109.35 143.82C109.26 143.91 109.17 143.91 109.17 144C109.17 144.09 108.99 144.09 108.99 144.18C108.99 144.27 108.81 144.27 108.72 144.36C108.63 144.45 108.54 144.45 108.45 144.54C108.36 144.63 108.27 144.63 108.18 144.72C108.09 144.81 108 144.81 107.91 144.9C107.82 144.99 107.73 144.99 107.64 145.08C107.541 145.175 107.415 145.237 107.28 145.26L68.85 167.58C68.49 167.76 68.22 167.94 67.86 168.12C67.77 168.12 67.68 168.21 67.59 168.21C67.23 168.39 66.96 168.48 66.6 168.66C66.5503 168.66 66.51 168.7 66.51 168.75C66.1646 168.91 65.8023 169.031 65.43 169.11C65.1712 169.213 64.8978 169.273 64.62 169.29C64.4136 169.362 64.2032 169.422 63.99 169.47C63.72 169.56 63.45 169.56 63.18 169.65C62.91 169.74 62.73 169.74 62.55 169.74H62.28C61.92 169.83 61.56 169.83 61.2 169.92H60.93C60.716 169.906 60.5014 169.936 60.3 170.01C59.94 170.01 59.58 170.1 59.31 170.1H56.34C56.0965 170.115 55.8524 170.084 55.62 170.01C55.35 170.01 55.08 169.92 54.9 169.92C54.72 169.92 54.45 169.83 54.18 169.83C53.9022 169.813 53.6287 169.753 53.37 169.65C53.19 169.65 52.92 169.56 52.74 169.56C52.38 169.47 52.11 169.38 51.84 169.29C51.57 169.2 51.39 169.2 51.21 169.11C51.03 169.02 51.03 169.02 50.85 169.02C50.5357 168.939 50.2332 168.818 49.95 168.66C49.86 168.66 49.77 168.57 49.68 168.57C49.3946 168.488 49.1219 168.367 48.87 168.21C48.78 168.12 48.6 168.12 48.51 168.03L47.43 167.49L8.72998 145.17C5.75998 143.46 4.22998 141.21 4.22998 138.87V143.01C4.22998 145.26 5.75998 147.51 8.72998 149.31L47.43 171.63L48.51 172.17C48.6 172.26 48.78 172.26 48.87 172.35C49.14 172.44 49.32 172.53 49.59 172.62H49.68C49.77 172.62 49.86 172.71 49.95 172.71C50.2643 172.791 50.5668 172.912 50.85 173.07C50.94 173.07 51.03 173.16 51.21 173.16C51.2782 173.17 51.3414 173.201 51.39 173.25C51.48 173.25 51.66 173.34 51.75 173.34L52.65 173.61C52.7489 173.598 52.848 173.631 52.92 173.7C53.0468 173.687 53.1744 173.718 53.28 173.79C53.55 173.88 53.82 173.88 54.09 173.97C54.216 173.966 54.3406 173.997 54.45 174.06H54.81C55.08 174.06 55.35 174.15 55.53 174.15H59.22C59.5526 174.169 59.8862 174.139 60.21 174.06H61.11C61.476 174.044 61.8386 173.984 62.19 173.88H62.55C62.7016 173.859 62.8519 173.829 63 173.79C63.27 173.7 63.54 173.7 63.81 173.61C64.0164 173.538 64.2267 173.478 64.44 173.43C64.6987 173.327 64.9722 173.267 65.25 173.25C65.34 173.25 65.34 173.25 65.43 173.16C65.7443 173.079 66.0468 172.958 66.33 172.8C66.3797 172.8 66.42 172.76 66.42 172.71C66.7659 172.598 67.098 172.447 67.41 172.26C67.5 172.26 67.59 172.17 67.68 172.17C68.0201 172.009 68.3506 171.829 68.67 171.63L107.1 149.31C107.19 149.31 107.19 149.22 107.28 149.22C107.37 149.22 107.37 149.13 107.46 149.13C107.55 149.13 107.64 149.04 107.73 148.95C107.82 148.86 107.91 148.86 108 148.77C108.09 148.68 108.18 148.68 108.27 148.59C108.36 148.5 108.45 148.5 108.54 148.41C108.63 148.32 108.72 148.32 108.81 148.23C108.9 148.14 108.99 148.14 108.99 148.05C108.99 147.96 109.17 147.96 109.17 147.87L109.26 147.78L109.35 147.69L109.71 147.33L109.8 147.24C109.946 147.113 110.069 146.961 110.16 146.79L110.25 146.7C110.34 146.61 110.43 146.52 110.43 146.43C110.43 146.34 110.52 146.34 110.52 146.25C110.52 146.16 110.61 146.07 110.7 145.98C110.76 145.92 110.82 145.86 110.88 145.8C110.88 145.71 110.97 145.62 110.97 145.53C110.97 145.44 111.06 145.44 111.06 145.35C111.06 145.26 111.15 145.17 111.15 145.08V144.9C111.159 144.832 111.191 144.769 111.24 144.72C111.24 144.63 111.24 144.63 111.33 144.54C111.42 144.45 111.33 144.36 111.42 144.36V139.14C111.6 139.23 111.6 139.32 111.6 139.41Z" fill="#FF7E06"/>
    <path fill-rule="evenodd" clip-rule="evenodd" d="M107.1 132.84C113.04 136.26 113.13 141.84 107.19 145.26L68.7596 167.58C62.8196 171 53.1896 171 47.2496 167.58L8.54957 145.26C2.60957 141.84 2.51957 136.26 8.45957 132.84L46.8896 110.52C52.8296 107.1 62.4596 107.1 68.3996 110.52L107.1 132.84Z" fill="url(#paint0_linear_948_1294)"/>
    <path fill-rule="evenodd" clip-rule="evenodd" d="M83.5738 138.33C82.8538 141.57 80.3338 144.63 76.1038 147.15C65.7538 153.18 49.0138 153.18 38.5738 147.15C34.2538 144.63 31.7338 141.48 31.0138 138.24C29.9338 133.65 32.4538 128.88 38.4838 125.37C48.8338 119.34 65.6638 119.34 76.0138 125.37C82.0438 128.88 84.5998 133.74 83.5738 138.33Z" fill="#D2CDC9"/>
    <path fill-rule="evenodd" clip-rule="evenodd" d="M83.5737 138.33C82.8537 141.57 80.3337 144.63 76.1037 147.15C65.7537 153.18 49.0137 153.18 38.5737 147.15C34.2537 144.63 31.7337 141.48 31.0137 138.24C31.7337 135 34.2537 131.94 38.4837 129.42C48.8337 123.39 65.6637 123.39 76.0137 129.42C80.2437 131.94 82.8537 135.09 83.5737 138.33Z" fill="url(#paint1_linear_948_1294)"/>
    <path fill-rule="evenodd" clip-rule="evenodd" d="M59.0935 16.74L89.0635 36.09L87.5335 71.73L57.5635 52.38L59.0935 16.74Z" fill="url(#paint2_linear_948_1294)"/>
    <path opacity="0.2" d="M57.5636 52.38L87.5336 71.73L55.6736 88.2L25.7036 68.94L57.5636 52.38Z" fill="url(#paint3_linear_948_1294)"/>
    <path opacity="0.3" d="M59.0936 16.74L57.5636 52.38L25.7036 68.94L27.2336 33.21L59.0936 16.74Z" fill="url(#paint4_linear_948_1294)"/>
    <path fill-rule="evenodd" clip-rule="evenodd" d="M60.1738 1.53003L103.014 29.16L100.854 80.1L57.9238 52.47L60.1738 1.53003V1.53003Z" stroke="#B5BDFC" stroke-width="0.28"/>
    <path fill-rule="evenodd" clip-rule="evenodd" d="M57.9236 52.47L100.854 80.1L55.3136 103.68L12.4736 76.05L57.9236 52.47V52.47Z" stroke="#B5BDFC" stroke-width="0.28"/>
    <path fill-rule="evenodd" clip-rule="evenodd" d="M60.1736 1.53003L57.9236 52.47L12.4736 76.05L14.6336 25.11L60.1736 1.53003V1.53003Z" stroke="#B5BDFC" stroke-width="0.28"/>
    <path fill-rule="evenodd" clip-rule="evenodd" d="M12.0237 77.76C12.8686 77.76 13.5537 77.0749 13.5537 76.23C13.5537 75.385 12.8686 74.7 12.0237 74.7C11.1787 74.7 10.4937 75.385 10.4937 76.23C10.4937 77.0749 11.1787 77.76 12.0237 77.76Z" fill="#B6BDFC"/>
    <path fill-rule="evenodd" clip-rule="evenodd" d="M14.634 26.64C15.479 26.64 16.164 25.955 16.164 25.11C16.164 24.265 15.479 23.58 14.634 23.58C13.789 23.58 13.104 24.265 13.104 25.11C13.104 25.955 13.789 26.64 14.634 26.64Z" fill="#B6BDFC"/>
    <path fill-rule="evenodd" clip-rule="evenodd" d="M57.6535 53.82C58.4985 53.82 59.1835 53.135 59.1835 52.29C59.1835 51.445 58.4985 50.76 57.6535 50.76C56.8085 50.76 56.1235 51.445 56.1235 52.29C56.1235 53.135 56.8085 53.82 57.6535 53.82Z" fill="#B6BDFC"/>
    <path fill-rule="evenodd" clip-rule="evenodd" d="M100.854 81.54C101.699 81.54 102.384 80.855 102.384 80.01C102.384 79.165 101.699 78.48 100.854 78.48C100.009 78.48 99.3237 79.165 99.3237 80.01C99.3237 80.855 100.009 81.54 100.854 81.54Z" fill="#B6BDFC"/>
    <path fill-rule="evenodd" clip-rule="evenodd" d="M60.1736 3.06C61.0186 3.06 61.7036 2.375 61.7036 1.53C61.7036 0.685004 61.0186 0 60.1736 0C59.3286 0 58.6436 0.685004 58.6436 1.53C58.6436 2.375 59.3286 3.06 60.1736 3.06Z" fill="#B6BDFC"/>
    <path fill-rule="evenodd" clip-rule="evenodd" d="M55.134 105.3C55.979 105.3 56.664 104.615 56.664 103.77C56.664 102.925 55.979 102.24 55.134 102.24C54.289 102.24 53.604 102.925 53.604 103.77C53.604 104.615 54.289 105.3 55.134 105.3Z" fill="#B6BDFC"/>
    <path fill-rule="evenodd" clip-rule="evenodd" d="M103.194 30.69C104.039 30.69 104.724 30.005 104.724 29.16C104.724 28.315 104.039 27.63 103.194 27.63C102.349 27.63 101.664 28.315 101.664 29.16C101.664 30.005 102.349 30.69 103.194 30.69Z" fill="#B6BDFC"/>
    <path fill-rule="evenodd" clip-rule="evenodd" d="M46.854 124.02C46.854 123.324 46.2899 122.76 45.594 122.76C44.8981 122.76 44.334 123.324 44.334 124.02C44.3434 124.474 44.5983 124.888 45 125.1L45.63 164.7L46.26 125.1C46.6339 124.869 46.8594 124.459 46.854 124.02Z" fill="url(#paint5_linear_948_1294)"/>
    <path fill-rule="evenodd" clip-rule="evenodd" d="M59.7239 109.71C59.7239 108.666 58.8777 107.82 57.8339 107.82C56.7901 107.82 55.9439 108.666 55.9439 109.71C55.9391 110.394 56.3228 111.022 56.9339 111.33L57.8339 168.57H57.7439L58.6439 111.33C59.3187 111.083 59.7558 110.428 59.7239 109.71Z" fill="url(#paint6_linear_948_1294)"/>
    <path fill-rule="evenodd" clip-rule="evenodd" d="M71.1538 118.53C71.1538 117.834 70.5897 117.27 69.8938 117.27C69.1979 117.27 68.6338 117.834 68.6338 118.53C68.6359 118.977 68.876 119.388 69.2638 119.61L69.8938 159.21L70.5238 119.61C70.9295 119.407 71.1768 118.983 71.1538 118.53Z" fill="url(#paint7_linear_948_1294)"/>
    <path fill-rule="evenodd" clip-rule="evenodd" d="M99.0537 60.48H15.5337L30.7437 136.62C30.7592 137.134 30.8194 137.646 30.9237 138.15C31.6437 141.39 34.1637 144.54 38.4837 147.06C48.9237 153.09 65.6637 153.09 76.0137 147.06C80.2437 144.63 82.7637 141.48 83.4837 138.24C83.5881 137.706 83.6483 137.164 83.6637 136.62L99.0537 60.48Z" fill="url(#paint8_linear_948_1294)"/>
    <defs>
        <linearGradient id="paint0_linear_948_1294" x1="169.573" y1="190.152" x2="169.573" y2="60.876" gradientUnits="userSpaceOnUse">
            <stop stop-color="#EA9D57"/>
            <stop offset="0.19" stop-color="#F18A2B"/>
            <stop offset="0.41" stop-color="#F29D6D"/>
            <stop offset="0.65" stop-color="#F07923"/>
            <stop offset="0.89" stop-color="#EEC6A9"/>
            <stop offset="1" stop-color="#FDFDFD"/>
        </linearGradient>
        <linearGradient id="paint1_linear_948_1294" x1="9.04448" y1="-457.65" x2="9.04448" y2="-408.492" gradientUnits="userSpaceOnUse">
            <stop stop-color="#7348BF"/>
            <stop offset="0.25" stop-color="#784AC1"/>
            <stop offset="0.54" stop-color="#854FC8"/>
            <stop offset="0.85" stop-color="#9C58D4"/>
            <stop offset="1" stop-color="#AA5DDB"/>
        </linearGradient>
        <linearGradient id="paint2_linear_948_1294" x1="81.1584" y1="3.57306" x2="46.1837" y2="10.3872" gradientUnits="userSpaceOnUse">
            <stop stop-color="#DCDCF0"/>
            <stop offset="0.33" stop-color="#E1E1F2"/>
            <stop offset="0.7" stop-color="#EEEEF8"/>
            <stop offset="1" stop-color="white"/>
        </linearGradient>
        <linearGradient id="paint3_linear_948_1294" x1="55.6092" y1="36.2243" x2="25.5498" y2="88.1109" gradientUnits="userSpaceOnUse">
            <stop stop-color="#CDDDF4"/>
            <stop offset="1" stop-color="#CDBAFA"/>
        </linearGradient>
        <linearGradient id="paint4_linear_948_1294" x1="41.8535" y1="-6.80352" x2="-3.98917" y2="22.52" gradientUnits="userSpaceOnUse">
            <stop stop-color="#CDDDF4"/>
            <stop offset="1" stop-color="#CDBAFA"/>
        </linearGradient>
        <linearGradient id="paint5_linear_948_1294" x1="46.8726" y1="151.022" x2="40.4642" y2="149.514" gradientUnits="userSpaceOnUse">
            <stop stop-color="white" stop-opacity="0.01"/>
            <stop offset="1" stop-color="white" stop-opacity="0.8"/>
        </linearGradient>
        <linearGradient id="paint6_linear_948_1294" x1="57.3038" y1="-439.858" x2="47.5371" y2="-437.41" gradientUnits="userSpaceOnUse">
            <stop stop-color="white" stop-opacity="0.01"/>
            <stop offset="1" stop-color="white" stop-opacity="0.8"/>
        </linearGradient>
        <linearGradient id="paint7_linear_948_1294" x1="69.5507" y1="-433.679" x2="63.1364" y2="-432.168" gradientUnits="userSpaceOnUse">
            <stop stop-color="white" stop-opacity="0.01"/>
            <stop offset="1" stop-color="white" stop-opacity="0.8"/>
        </linearGradient>
        <linearGradient id="paint8_linear_948_1294" x1="11.6124" y1="62.388" x2="11.6124" y2="162.045" gradientUnits="userSpaceOnUse">
            <stop stop-color="#F48C41" stop-opacity="0.01"/>
            <stop offset="0.21" stop-color="#F08334" stop-opacity="0.21"/>
            <stop offset="0.55" stop-color="#E28026" stop-opacity="0.55"/>
            <stop offset="0.9899" stop-color="#F17D12"/>
            <stop offset="0.99" stop-color="#F47A09" stop-opacity="0.99"/>
        </linearGradient>
    </defs>
</svg>
