<svg width="64" height="64" viewBox="0 0 64 64" fill="none" xmlns="http://www.w3.org/2000/svg">
<path d="M58.7459 23.6102C61.0673 23.6102 62.9493 20.7873 62.9493 17.3051C62.9493 13.8229 61.0673 11 58.7459 11C56.4244 11 54.5425 13.8229 54.5425 17.3051C54.5425 20.7873 56.4244 23.6102 58.7459 23.6102Z" stroke="white" stroke-width="2" stroke-linecap="round" stroke-linejoin="round"/>
<path d="M8.30508 11V17.3051C8.30508 19.6266 6.42316 21.5085 4.1017 21.5085H2M2 11V50.9322V11ZM58.7458 23.6102V50.9322V23.6102Z" stroke="white" stroke-width="2" stroke-linecap="round" stroke-linejoin="round"/>
<path d="M30.3728 53.0338C41.3998 53.0338 50.3389 44.0946 50.3389 33.0677C50.3389 22.0407 41.3998 13.1016 30.3728 13.1016C19.3459 13.1016 10.4067 22.0407 10.4067 33.0677C10.4067 44.0946 19.3459 53.0338 30.3728 53.0338Z" stroke="white" stroke-width="2" stroke-linecap="round" stroke-linejoin="round"/>
<path d="M21.3354 25.7119C24.4032 21.865 29.57 20.3818 34.2112 22.0157C38.8524 23.6496 41.9506 28.0424 41.9321 32.9628M37.7286 41.895C34.4351 44.5843 29.931 45.2483 26.0014 43.6238C22.0719 41.9993 19.3515 38.3486 18.9185 34.1187L37.7286 41.895Z" stroke="white" stroke-width="2" stroke-linecap="round" stroke-linejoin="round"/>
</svg>
