<svg width="20" height="20" viewBox="0 0 20 20" fill="none"
    xmlns="http://www.w3.org/2000/svg">
    <path d="M2.79279 15.7955C3.13043 14.3874 4.39754 13.3409 5.90909 13.3409C7.67891 13.3409 9.11364 14.7756 9.11364 16.5455C9.11364 18.3153 7.67891 19.75 5.90909 19.75C4.39754 19.75 3.13043 18.7035 2.79279 17.2955H1C0.585786 17.2955 0.25 16.9597 0.25 16.5455C0.25 16.1312 0.585786 15.7955 1 15.7955H2.79279ZM9.33825 9.25C9.67588 7.84199 10.943 6.79545 12.4545 6.79545C14.2244 6.79545 15.6591 8.23018 15.6591 10C15.6591 11.7698 14.2244 13.2045 12.4545 13.2045C10.943 13.2045 9.67588 12.158 9.33825 10.75H1C0.585786 10.75 0.25 10.4142 0.25 10C0.25 9.58579 0.585786 9.25 1 9.25H9.33825ZM2.79279 2.70455C3.13043 1.29653 4.39754 0.25 5.90909 0.25C7.67891 0.25 9.11364 1.68472 9.11364 3.45455C9.11364 5.22437 7.67891 6.65909 5.90909 6.65909C4.39754 6.65909 3.13043 5.61256 2.79279 4.20455H1C0.585786 4.20455 0.25 3.86876 0.25 3.45455C0.25 3.04033 0.585786 2.70455 1 2.70455H2.79279ZM11.6364 4.20455C11.2222 4.20455 10.8864 3.86876 10.8864 3.45455C10.8864 3.04033 11.2222 2.70455 11.6364 2.70455H19C19.4142 2.70455 19.75 3.04033 19.75 3.45455C19.75 3.86876 19.4142 4.20455 19 4.20455H11.6364ZM18.1818 10.75C17.7676 10.75 17.4318 10.4142 17.4318 10C17.4318 9.58579 17.7676 9.25 18.1818 9.25H19C19.4142 9.25 19.75 9.58579 19.75 10C19.75 10.4142 19.4142 10.75 19 10.75H18.1818ZM11.6364 17.2955C11.2222 17.2955 10.8864 16.9597 10.8864 16.5455C10.8864 16.1312 11.2222 15.7955 11.6364 15.7955H19C19.4142 15.7955 19.75 16.1312 19.75 16.5455C19.75 16.9597 19.4142 17.2955 19 17.2955H11.6364ZM5.90909 5.15909C6.85049 5.15909 7.61364 4.39594 7.61364 3.45455C7.61364 2.51315 6.85049 1.75 5.90909 1.75C4.9677 1.75 4.20455 2.51315 4.20455 3.45455C4.20455 4.39594 4.9677 5.15909 5.90909 5.15909ZM12.4545 11.7045C13.3959 11.7045 14.1591 10.9414 14.1591 10C14.1591 9.05861 13.3959 8.29545 12.4545 8.29545C11.5132 8.29545 10.75 9.05861 10.75 10C10.75 10.9414 11.5132 11.7045 12.4545 11.7045ZM5.90909 18.25C6.85049 18.25 7.61364 17.4868 7.61364 16.5455C7.61364 15.6041 6.85049 14.8409 5.90909 14.8409C4.9677 14.8409 4.20455 15.6041 4.20455 16.5455C4.20455 17.4868 4.9677 18.25 5.90909 18.25Z" fill="#FFA26B"/>
</svg>
