<svg width="64" height="64" viewBox="0 0 64 64" fill="none" xmlns="http://www.w3.org/2000/svg">
<path fill-rule="evenodd" clip-rule="evenodd" d="M32.003 63.1174C27.6045 63.1174 21.5603 57.8165 16.2316 49.2858C11.046 40.9837 7.69492 31.491 7.69492 25.1029C7.81554 11.7632 18.6637 1.0127 32.004 1.0127C45.3443 1.0127 56.1924 11.7632 56.3131 25.1029C56.3131 31.491 52.962 40.9837 47.7665 49.2858C42.4477 57.8165 36.4035 63.1174 32.003 63.1174Z" fill="url(#paint0_linear_553_4452)"/>
<path fill-rule="evenodd" clip-rule="evenodd" d="M32.0029 38.3543C39.1171 38.3543 44.8844 32.587 44.8844 25.4728C44.8844 18.3585 39.1171 12.5913 32.0029 12.5913C24.8886 12.5913 19.1214 18.3585 19.1214 25.4728C19.1214 32.587 24.8886 38.3543 32.0029 38.3543Z" fill="url(#paint1_linear_553_4452)"/>
<path fill-rule="evenodd" clip-rule="evenodd" d="M31.5122 15.0158C26.7487 14.5475 22.4019 17.7554 21.4451 22.4454C21.2941 23.2026 22.4568 23.5147 22.6099 22.7514C23.4247 18.5887 27.2967 15.7472 31.5122 16.2183C32.2814 16.2978 32.2755 15.1052 31.5122 15.0158Z" fill="#FBFBFB"/>
<defs>
<linearGradient id="paint0_linear_553_4452" x1="7.69492" y1="63.0084" x2="56.3131" y2="63.0084" gradientUnits="userSpaceOnUse">
<stop stop-color="#FF630C"/>
<stop offset="1" stop-color="#EAAA86"/>
</linearGradient>
<linearGradient id="paint1_linear_553_4452" x1="19.1234" y1="38.3533" x2="44.8844" y2="38.3533" gradientUnits="userSpaceOnUse">
<stop stop-color="#F6F2EC"/>
<stop offset="1" stop-color="#F3EFE9"/>
</linearGradient>
</defs>
</svg>
