<svg width="16" height="18" viewBox="0 0 16 18" fill="none"
    xmlns="http://www.w3.org/2000/svg">
    <path d="M8.00347 0C4.55999 0 0.959991 2.66087 0.959991 7.04348C0.959991 11.1913 7.22086 17.5304 7.45564 17.7652C7.61217 17.9217 7.76869 18 8.00347 18C8.23825 18 8.39477 17.9217 8.5513 17.7652C8.78608 17.5304 15.0469 11.1913 15.0469 7.04348C15.0469 2.66087 11.4469 0 8.00347 0ZM8.00347 9.3913C6.67303 9.3913 5.65564 8.37391 5.65564 7.04348C5.65564 5.71304 6.67303 4.69565 8.00347 4.69565C9.3339 4.69565 10.3513 5.71304 10.3513 7.04348C10.3513 8.37391 9.3339 9.3913 8.00347 9.3913Z" fill="url(#paint0_linear_948_2388)"/>
    <defs>
        <linearGradient id="paint0_linear_948_2388" x1="8.00347" y1="-9" x2="-9.46898" y2="4.67409" gradientUnits="userSpaceOnUse">
            <stop stop-color="#E3B97A"/>
            <stop offset="1" stop-color="#F8941F"/>
        </linearGradient>
    </defs>
</svg>
