<svg width="40" height="38" viewBox="0 0 40 38" fill="none"
    xmlns="http://www.w3.org/2000/svg">
    <path opacity="0.25" d="M20 38C31.0457 38 40 35.7614 40 33C40 30.2386 31.0457 28 20 28C8.95431 28 0 30.2386 0 33C0 35.7614 8.95431 38 20 38Z" fill="#BE52F2"/>
    <path opacity="0.55" d="M20 35.5C25.198 35.5 29.4118 34.3807 29.4118 33C29.4118 31.6193 25.198 30.5 20 30.5C14.802 30.5 10.5883 31.6193 10.5883 33C10.5883 34.3807 14.802 35.5 20 35.5Z" fill="#BE52F2"/>
    <path d="M20 2.20496C14.15 2.20496 9.5 6.85496 9.5 12.705C9.5 15.555 10.55 18.255 12.65 20.205C12.8 20.355 18.8 25.755 18.95 25.905C19.55 26.355 20.45 26.355 20.9 25.905C21.05 25.755 27.2 20.355 27.2 20.205C29.3 18.255 30.35 15.555 30.35 12.705C30.5 6.85496 25.85 2.20496 20 2.20496ZM20 15.705C18.35 15.705 17 14.355 17 12.705C17 11.055 18.35 9.70496 20 9.70496C21.65 9.70496 23 11.055 23 12.705C23 14.355 21.65 15.705 20 15.705Z" fill="url(#paint0_linear_189_4)"/>
    <defs>
        <linearGradient id="paint0_linear_189_4" x1="19.9268" y1="-9.81379" x2="-3.8701" y2="10.831" gradientUnits="userSpaceOnUse">
            <stop stop-color="#E3B97A"/>
            <stop offset="1" stop-color="#F8941F"/>
        </linearGradient>
    </defs>
</svg>
