<svg width="14" height="14" viewBox="0 0 14 14" fill="none"
    xmlns="http://www.w3.org/2000/svg">
    <path d="M7 14C10.866 14 14 10.866 14 7C14 3.13401 10.866 0 7 0C3.13401 0 0 3.13401 0 7C0 10.866 3.13401 14 7 14Z" fill="#ECEBED"/>
    <path d="M2.05025 11.9497C2.86424 12.7637 3.86642 13.3644 4.96801 13.6986C6.0696 14.0327 7.23659 14.0901 8.36563 13.8655C9.49467 13.6409 10.5509 13.1414 11.4408 12.4111C12.3306 11.6808 13.0266 10.7423 13.4672 9.67878C13.9077 8.61525 14.0791 7.45949 13.9663 6.31388C13.8535 5.16827 13.4598 4.06816 12.8203 3.11101C12.1807 2.15386 11.315 1.3692 10.2998 0.826551C9.28455 0.2839 8.15116 8.69099e-08 7 0L7 7L2.05025 11.9497Z" fill="#D0C9D6"/>
</svg>
