<svg width="131" height="65" viewBox="0 0 131 65" fill="none" xmlns="http://www.w3.org/2000/svg">
<path d="M113.067 31.6665V57.3332C113.067 59.3581 111.425 60.9998 109.4 60.9998H83.7334C81.7085 60.9998 80.0668 59.3581 80.0668 57.3332V31.6665" stroke="white" stroke-width="2" stroke-linejoin="round"/>
<path d="M91.0668 48.1665V53.6665" stroke="white" stroke-width="2" stroke-linecap="round" stroke-linejoin="round"/>
<path d="M102.067 37.1665V53.6665" stroke="white" stroke-width="2" stroke-linecap="round" stroke-linejoin="round"/>
<path d="M80 32.3335V6.66683C80 4.64191 78.3583 3.00016 76.3333 3.00016H50.6667C48.6418 3.00016 47 4.64191 47 6.66683V32.3335" stroke="white" stroke-width="2" stroke-linejoin="round"/>
<path d="M58 15.8335V10.3335" stroke="white" stroke-width="2" stroke-linecap="round" stroke-linejoin="round"/>
<path d="M69 26.8335V10.3335" stroke="white" stroke-width="2" stroke-linecap="round" stroke-linejoin="round"/>
<path d="M47.0668 30.6665V56.3332C47.0668 58.3581 45.425 59.9998 43.4001 59.9998H17.7334C15.7085 59.9998 14.0668 58.3581 14.0668 56.3332V30.6665" stroke="white" stroke-width="2" stroke-linejoin="round"/>
<path d="M25.0668 47.1665V52.6665" stroke="white" stroke-width="2" stroke-linecap="round" stroke-linejoin="round"/>
<path d="M36.0668 36.1665V52.6665" stroke="white" stroke-width="2" stroke-linecap="round" stroke-linejoin="round"/>
</svg>
