<svg width="343" height="87" viewBox="0 0 343 87" fill="none"
    xmlns="http://www.w3.org/2000/svg">
    <path opacity="0.4" d="M324 84C324 83.4477 324.448 83 325 83H342C342.552 83 343 83.4477 343 84V86H324V84Z" fill="#ECEBED"/>
    <path opacity="0.4" d="M305 80C305 79.4477 305.448 79 306 79H323C323.552 79 324 79.4477 324 80V86H305V80Z" fill="#ECEBED"/>
    <path opacity="0.4" d="M286 78C286 77.4477 286.448 77 287 77H304C304.552 77 305 77.4477 305 78V86H286V78Z" fill="#ECEBED"/>
    <path opacity="0.4" d="M267 78C267 77.4477 267.448 77 268 77H285C285.552 77 286 77.4477 286 78V86H267V78Z" fill="#ECEBED"/>
    <path opacity="0.4" d="M248 67C248 66.4477 248.448 66 249 66H266C266.552 66 267 66.4477 267 67V86H248V67Z" fill="#ECEBED"/>
    <path opacity="0.4" d="M229 55C229 54.4477 229.448 54 230 54H247C247.552 54 248 54.4477 248 55V86H229V55Z" fill="#ECEBED"/>
    <path opacity="0.4" d="M210 61C210 60.4477 210.448 60 211 60H228C228.552 60 229 60.4477 229 61V86H210V61Z" fill="#ECEBED"/>
    <path opacity="0.4" d="M191 24C191 23.4477 191.448 23 192 23H209C209.552 23 210 23.4477 210 24V86H191V24Z" fill="#ECEBED"/>
    <path opacity="0.4" d="M172 14C172 13.4477 172.448 13 173 13H190C190.552 13 191 13.4477 191 14V86H172V14Z" fill="#ECEBED"/>
    <path opacity="0.4" d="M153 37C153 36.4477 153.448 36 154 36H171C171.552 36 172 36.4477 172 37V86H153V37Z" fill="#ECEBED"/>
    <path opacity="0.4" d="M134 28C134 27.4477 134.448 27 135 27H152C152.552 27 153 27.4477 153 28V86H134V28Z" fill="#ECEBED"/>
    <path opacity="0.4" d="M115 17C115 16.4477 115.448 16 116 16H133C133.552 16 134 16.4477 134 17V86H115V17Z" fill="#ECEBED"/>
    <path opacity="0.4" d="M96 1C96 0.447716 96.4477 0 97 0H114C114.552 0 115 0.447715 115 1V86H96V1Z" fill="#ECEBED"/>
    <path opacity="0.4" d="M77 12C77 11.4477 77.4477 11 78 11H95C95.5523 11 96 11.4477 96 12V86H77V12Z" fill="#ECEBED"/>
    <path opacity="0.4" d="M58 31C58 30.4477 58.4477 30 59 30H76C76.5523 30 77 30.4477 77 31V86H58V31Z" fill="#ECEBED"/>
    <path opacity="0.4" d="M39 55C39 54.4477 39.4477 54 40 54H57C57.5523 54 58 54.4477 58 55V86H39V55Z" fill="#ECEBED"/>
    <path opacity="0.4" d="M20 76C20 75.4477 20.4477 75 21 75H38C38.5523 75 39 75.4477 39 76V86H20V76Z" fill="#ECEBED"/>
    <path opacity="0.4" d="M0 80C0 79.4477 0.447715 79 1 79H19C19.5523 79 20 79.4477 20 80V86H0V80Z" fill="#ECEBED"/>
    <mask id="mask0_64_0" style="mask-type:alpha" maskUnits="userSpaceOnUse" x="0" y="1" width="343" height="86">
        <path opacity="0.4" d="M324 85C324 84.4477 324.448 84 325 84H342C342.552 84 343 84.4477 343 85V87H324V85Z" fill="#ECEBED"/>
        <path opacity="0.4" d="M305 81C305 80.4477 305.448 80 306 80H323C323.552 80 324 80.4477 324 81V87H305V81Z" fill="#ECEBED"/>
        <path opacity="0.4" d="M286 79C286 78.4477 286.448 78 287 78H304C304.552 78 305 78.4477 305 79V87H286V79Z" fill="#ECEBED"/>
        <path opacity="0.4" d="M267 79C267 78.4477 267.448 78 268 78H285C285.552 78 286 78.4477 286 79V87H267V79Z" fill="#ECEBED"/>
        <path opacity="0.4" d="M248 68C248 67.4477 248.448 67 249 67H266C266.552 67 267 67.4477 267 68V87H248V68Z" fill="#ECEBED"/>
        <path opacity="0.4" d="M229 56C229 55.4477 229.448 55 230 55H247C247.552 55 248 55.4477 248 56V87H229V56Z" fill="#ECEBED"/>
        <path opacity="0.4" d="M210 62C210 61.4477 210.448 61 211 61H228C228.552 61 229 61.4477 229 62V87H210V62Z" fill="#ECEBED"/>
        <path opacity="0.4" d="M191 25C191 24.4477 191.448 24 192 24H209C209.552 24 210 24.4477 210 25V87H191V25Z" fill="#ECEBED"/>
        <path opacity="0.4" d="M172 15C172 14.4477 172.448 14 173 14H190C190.552 14 191 14.4477 191 15V87H172V15Z" fill="#ECEBED"/>
        <path opacity="0.4" d="M153 38C153 37.4477 153.448 37 154 37H171C171.552 37 172 37.4477 172 38V87H153V38Z" fill="#ECEBED"/>
        <path opacity="0.4" d="M134 29C134 28.4477 134.448 28 135 28H152C152.552 28 153 28.4477 153 29V87H134V29Z" fill="#ECEBED"/>
        <path opacity="0.4" d="M115 18C115 17.4477 115.448 17 116 17H133C133.552 17 134 17.4477 134 18V87H115V18Z" fill="#ECEBED"/>
        <path opacity="0.4" d="M96 2C96 1.44772 96.4477 1 97 1H114C114.552 1 115 1.44772 115 2V87H96V2Z" fill="#ECEBED"/>
        <path opacity="0.4" d="M77 13C77 12.4477 77.4477 12 78 12H95C95.5523 12 96 12.4477 96 13V87H77V13Z" fill="#ECEBED"/>
        <path opacity="0.4" d="M58 32C58 31.4477 58.4477 31 59 31H76C76.5523 31 77 31.4477 77 32V87H58V32Z" fill="#ECEBED"/>
        <path opacity="0.4" d="M39 56C39 55.4477 39.4477 55 40 55H57C57.5523 55 58 55.4477 58 56V87H39V56Z" fill="#ECEBED"/>
        <path opacity="0.4" d="M20 77C20 76.4477 20.4477 76 21 76H38C38.5523 76 39 76.4477 39 77V87H20V77Z" fill="#ECEBED"/>
        <path opacity="0.4" d="M0 81C0 80.4477 0.447715 80 1 80H19C19.5523 80 20 80.4477 20 81V87H0V81Z" fill="#ECEBED"/>
    </mask>
    <g mask="url(#mask0_64_0)">
        <rect opacity="0.3" x="61" y="1" width="120" height="84" fill="url(#paint0_linear_64_0)"/>
    </g>
    <defs>
        <linearGradient id="paint0_linear_64_0" x1="119.041" y1="-36.8861" x2="42.6918" y2="72.1842" gradientUnits="userSpaceOnUse">
            <stop stop-color="#CDDDF4"/>
            <stop offset="1" stop-color="#CDBAFA"/>
        </linearGradient>
    </defs>
</svg>
