<svg width="12" height="14" viewBox="0 0 12 14" fill="none" xmlns="http://www.w3.org/2000/svg">
<path d="M7.50781 5.50637C7.50781 5.50637 8.16056 1.66688 5.49706 0C5.4168 1.33425 4.77209 2.57117 3.72431 3.40112C2.58681 4.40125 0.447431 6.65 0.470181 9.0475C0.45351 11.1381 1.62371 13.0574 3.48981 14C3.55583 13.0652 3.99547 12.1963 4.70956 11.5894C5.31462 11.124 5.70744 10.4352 5.79981 9.6775C7.39278 10.5243 8.42304 12.1465 8.51231 13.9484V13.9598C10.2729 13.1533 11.432 11.4269 11.5118 9.492C11.7008 7.23975 10.4671 4.17725 9.37243 3.17625C8.95916 4.09889 8.31739 4.90088 7.50781 5.50637Z" fill="white"/>
</svg>
