<svg width="160" height="240" viewBox="0 0 160 240" fill="none" xmlns="http://www.w3.org/2000/svg">
<g opacity="0.2">
<path fill-rule="evenodd" clip-rule="evenodd" d="M149.259 189.72C157.659 194.28 157.659 201.72 149.379 206.28L95.1387 236.04C86.7387 240.6 73.1787 240.6 64.7787 236.04L10.1787 206.28C1.77867 201.72 1.77867 194.28 10.0587 189.72L64.2987 159.96C72.6987 155.4 86.2587 155.4 94.6587 159.96L149.259 189.72Z" fill="#606060"/>
</g>
<path fill-rule="evenodd" clip-rule="evenodd" d="M152.019 186.36V187.56C152.019 187.68 152.019 187.8 151.899 187.8C151.779 187.8 151.899 187.92 151.779 188.04C151.766 188.131 151.724 188.215 151.659 188.28C151.659 188.4 151.539 188.4 151.539 188.52C151.539 188.64 151.419 188.76 151.419 188.88C151.419 189 151.299 189 151.299 189.12C151.299 189.24 151.179 189.36 151.179 189.48C151.179 189.6 151.059 189.6 151.059 189.72C151.059 189.84 150.939 189.96 150.819 190.08C150.699 190.2 150.699 190.2 150.699 190.32C150.699 190.44 150.459 190.56 150.459 190.68L150.339 190.8C150.219 191.04 149.979 191.16 149.859 191.4L149.739 191.52C149.619 191.64 149.499 191.88 149.259 192L149.019 192.24C148.899 192.36 148.779 192.36 148.779 192.48C148.779 192.6 148.539 192.6 148.539 192.72C148.539 192.84 148.299 192.84 148.179 192.96C148.059 193.08 147.939 193.08 147.819 193.2C147.699 193.32 147.579 193.32 147.459 193.44C147.339 193.56 147.219 193.56 147.099 193.68C146.979 193.8 146.859 193.8 146.739 193.92C146.606 194.046 146.439 194.13 146.259 194.16L95.0667 223.92C94.5867 224.16 94.2267 224.4 93.7467 224.64C93.6267 224.64 93.5067 224.76 93.3867 224.76C92.9067 225 92.5467 225.12 92.0667 225.36C92.0004 225.36 91.9467 225.414 91.9467 225.48C91.4862 225.693 91.0032 225.854 90.5067 225.96C90.1617 226.097 89.7971 226.178 89.4267 226.2C89.1515 226.296 88.871 226.376 88.5867 226.44C88.2267 226.56 87.8667 226.56 87.5067 226.68C87.1467 226.8 86.9067 226.8 86.6667 226.8H86.3067C85.8267 226.92 85.3467 226.92 84.8667 227.04H84.5067C84.2214 227.021 83.9352 227.061 83.6667 227.16C83.1867 227.16 82.7067 227.28 82.3467 227.28H78.3867C78.062 227.299 77.7366 227.259 77.4267 227.16C77.0667 227.16 76.7067 227.04 76.4667 227.04C76.2267 227.04 75.8667 226.92 75.5067 226.92C75.1362 226.898 74.7717 226.817 74.4267 226.68C74.1867 226.68 73.8267 226.56 73.5867 226.56C73.1067 226.44 72.7467 226.32 72.3867 226.2C72.0267 226.08 71.7867 226.08 71.5467 225.96C71.3067 225.84 71.3067 225.84 71.0667 225.84C70.6477 225.732 70.2443 225.571 69.8667 225.36C69.7467 225.36 69.6267 225.24 69.5067 225.24C69.1261 225.131 68.7626 224.969 68.4267 224.76C68.3067 224.64 68.0667 224.64 67.9467 224.52L66.5067 223.8L14.9067 194.04C10.9467 191.76 8.90668 188.76 8.90668 185.64V191.16C8.90668 194.16 10.9467 197.16 14.9067 199.56L66.5067 229.32L67.9467 230.04C68.0667 230.16 68.3067 230.16 68.4267 230.28C68.7867 230.4 69.0267 230.52 69.3867 230.64H69.5067C69.6267 230.64 69.7467 230.76 69.8667 230.76C70.2857 230.867 70.689 231.029 71.0667 231.24C71.1867 231.24 71.3067 231.36 71.5467 231.36C71.6376 231.373 71.722 231.415 71.7867 231.48C71.9067 231.48 72.1467 231.6 72.2667 231.6C72.6267 231.72 73.1067 231.84 73.4667 231.96C73.5986 231.944 73.7307 231.988 73.8267 232.08C73.9958 232.062 74.1659 232.104 74.3067 232.2C74.6667 232.32 75.0267 232.32 75.3867 232.44C75.5547 232.435 75.7208 232.476 75.8667 232.56H76.3467C76.7067 232.56 77.0667 232.68 77.3067 232.68H82.2267C82.6702 232.705 83.115 232.665 83.5467 232.56H84.7467C85.2347 232.539 85.7182 232.458 86.1867 232.32H86.6667C86.8689 232.292 87.0692 232.252 87.2667 232.2C87.6267 232.08 87.9867 232.08 88.3467 231.96C88.6219 231.864 88.9023 231.784 89.1867 231.72C89.5317 231.583 89.8962 231.502 90.2667 231.48C90.3867 231.48 90.3867 231.48 90.5067 231.36C90.9257 231.252 91.329 231.091 91.7067 230.88C91.7729 230.88 91.8267 230.826 91.8267 230.76C92.2879 230.61 92.7307 230.409 93.1467 230.16C93.2667 230.16 93.3867 230.04 93.5067 230.04C93.9601 229.825 94.4008 229.585 94.8267 229.32L146.067 199.56C146.187 199.56 146.187 199.44 146.307 199.44C146.427 199.44 146.427 199.32 146.547 199.32C146.667 199.32 146.787 199.2 146.907 199.08C147.027 198.96 147.147 198.96 147.267 198.84C147.387 198.72 147.507 198.72 147.627 198.6C147.747 198.48 147.867 198.48 147.987 198.36C148.107 198.24 148.227 198.24 148.347 198.12C148.467 198 148.587 198 148.587 197.88C148.587 197.76 148.827 197.76 148.827 197.64L148.947 197.52L149.067 197.4L149.547 196.92L149.667 196.8C149.862 196.631 150.025 196.428 150.147 196.2L150.267 196.08C150.387 195.96 150.507 195.84 150.507 195.72C150.507 195.6 150.627 195.6 150.627 195.48C150.627 195.36 150.747 195.24 150.867 195.12C150.947 195.04 151.027 194.96 151.106 194.88C151.106 194.76 151.226 194.64 151.226 194.52C151.226 194.4 151.346 194.4 151.346 194.28C151.346 194.16 151.466 194.04 151.466 193.92V193.68C151.479 193.589 151.521 193.505 151.586 193.44C151.586 193.32 151.586 193.32 151.706 193.2C151.826 193.08 151.706 192.96 151.826 192.96V186C152.019 186.12 152.019 186.24 152.019 186.36Z" fill="url(#paint0_linear_297_4882)"/>
<path fill-rule="evenodd" clip-rule="evenodd" d="M146.139 177.6C154.059 182.16 154.179 189.6 146.259 194.16L95.0667 223.92C87.1467 228.48 74.3067 228.48 66.3867 223.92L14.7867 194.16C6.86666 189.6 6.74666 182.16 14.6667 177.6L65.9067 147.84C73.8267 143.28 86.6667 143.28 94.5867 147.84L146.139 177.6Z" fill="url(#paint1_linear_297_4882)"/>
<path fill-rule="evenodd" clip-rule="evenodd" d="M114.699 184.92C113.739 189.24 110.379 193.32 104.739 196.68C90.9387 204.72 68.6187 204.72 54.6987 196.68C48.9387 193.32 45.5787 189.12 44.6187 184.8C43.1787 178.68 46.5387 172.32 54.5787 167.64C68.3787 159.6 90.8187 159.6 104.619 167.64C112.779 172.32 116.139 178.8 114.699 184.92Z" fill="url(#paint2_linear_297_4882)"/>
<path fill-rule="evenodd" clip-rule="evenodd" d="M114.699 184.92C113.739 189.24 110.379 193.32 104.739 196.68C90.9387 204.72 68.6187 204.72 54.6987 196.68C48.9387 193.32 45.5787 189.12 44.6187 184.8C45.5787 180.48 48.9387 176.4 54.5787 173.04C68.3787 165 90.8187 165 104.619 173.04C110.379 176.4 113.739 180.6 114.699 184.92Z" fill="url(#paint3_linear_297_4882)"/>
<path opacity="0.6" fill-rule="evenodd" clip-rule="evenodd" d="M90.9387 24.48C90.9603 37.8115 89.0195 51.0737 85.1787 63.84C81.4059 76.6275 75.7867 88.7958 68.4987 99.96L64.1787 106.56C60.5456 105.136 57.1161 103.24 53.9787 100.92C50.4265 98.2106 47.3103 94.9731 44.7387 91.32C39.967 84.4079 37.429 76.1991 37.4667 67.8V55.32C45.4723 56.8777 53.5806 53.1614 57.6267 46.08L64.1067 34.8C66.7706 36.3427 69.7885 37.1695 72.8667 37.2C78.6262 37.2354 84.0252 34.4009 87.2667 29.64L90.9387 24.48Z" fill="url(#paint4_linear_297_4882)"/>
<path fill-rule="evenodd" clip-rule="evenodd" d="M99.8667 29.6399C99.8883 42.9714 97.9475 56.2336 94.1067 68.9999C90.3339 81.7874 84.7147 93.9557 77.4267 105.12L73.1067 111.72C69.4736 110.296 66.0441 108.4 62.9067 106.08C59.3545 103.371 56.2383 100.133 53.6667 96.4799C48.878 89.5734 46.3231 81.3641 46.3467 72.9599V60.4799C54.3523 62.0376 62.4606 58.3213 66.5067 51.2399L72.9867 39.9599C75.6506 41.5026 78.6684 42.3294 81.7467 42.3599C87.5062 42.3953 92.9052 39.5608 96.1467 34.7999L99.8667 29.6399Z" fill="url(#paint5_linear_297_4882)"/>
<g opacity="0.75">
<path fill-rule="evenodd" clip-rule="evenodd" d="M96.3867 34.6799L99.8667 29.6399C99.8077 42.8698 97.9507 56.0302 94.3467 68.7599C90.5229 81.5281 84.9069 93.6893 77.6667 104.88L73.3467 111.48C69.7011 110.083 66.268 108.185 63.1467 105.84C52.713 98.0288 46.5753 85.7535 46.5867 72.7199V60.2399C47.7719 60.4784 48.9777 60.599 50.1867 60.5999C57.0039 60.6252 63.3167 57.0114 66.7467 51.1199L73.2267 39.8399C75.8677 41.4366 78.9007 42.2675 81.9867 42.2399C87.7395 42.2479 93.1265 39.4197 96.3867 34.6799ZM98.7372 32.8306C98.7377 32.807 98.7382 32.7835 98.7387 32.7599H98.7867L98.7372 32.8306ZM98.7372 32.8306L97.1067 35.1599C93.6663 40.1923 87.9627 43.2013 81.8667 43.1999C78.9465 43.1797 76.0709 42.4813 73.4667 41.1599L67.2987 51.7199C63.7225 57.8794 57.1411 61.6729 50.0187 61.6799C49.137 61.6998 48.2549 61.6597 47.3787 61.5599V72.9599C47.3434 81.1808 49.813 89.2174 54.4587 95.9999C59.0082 102.529 65.34 107.611 72.6987 110.64L76.5387 104.64C83.7609 93.5415 89.3388 81.4562 93.0987 68.7599C96.5814 57.0905 98.4779 45.0056 98.7372 32.8306Z" fill="url(#paint6_linear_297_4882)"/>
</g>
<path fill-rule="evenodd" clip-rule="evenodd" d="M99.8667 29.6401L96.3867 34.6801C93.1265 39.4199 87.7395 42.2481 81.9867 42.2401C78.9006 42.2677 75.8677 41.4368 73.2267 39.8401L66.7467 51.1201C62.6646 58.162 54.5859 61.8647 46.5867 60.3601V72.8401C46.5753 85.8737 52.713 98.149 63.1467 105.96C47.7846 99.4433 37.8126 84.3673 37.8267 67.6801V55.2001C45.8323 56.7579 53.9406 53.0415 57.9867 45.9601L64.4667 34.6801C72.3789 39.2519 82.4779 36.9496 87.6267 29.4001L91.1067 24.3601L99.8667 29.6401Z" fill="url(#paint7_linear_297_4882)"/>
<path opacity="0.6" fill-rule="evenodd" clip-rule="evenodd" d="M74.0187 83.0399C74.0187 83.0399 74.6187 78.2399 82.8987 72.8399C86.7053 75.3985 89.7686 78.9172 91.7787 83.0399C91.7787 83.0399 96.2667 54.4799 109.539 47.1599L122.859 54.8399C111.699 59.1599 100.419 77.9999 93.0987 102.72C89.4987 93.4799 82.8987 86.0399 74.0187 83.0399Z" fill="#6BE726"/>
<g opacity="0.95">
<path fill-rule="evenodd" clip-rule="evenodd" d="M122.859 54.84L116.139 51C102.819 58.32 98.3787 86.88 98.3787 86.88C96.9882 83.8614 94.9859 81.1644 92.4987 78.96C94.2987 70.8 99.2187 52.68 109.539 47.04L122.859 54.84Z" fill="url(#paint8_linear_297_4882)"/>
<path fill-rule="evenodd" clip-rule="evenodd" d="M89.4987 76.56L82.8987 72.72C77.7387 76.32 74.8587 79.68 74.0187 82.92L80.6667 86.76C82.4124 82.4834 85.5157 78.8994 89.4987 76.56Z" fill="url(#paint9_linear_297_4882)"/>
<path fill-rule="evenodd" clip-rule="evenodd" d="M82.0587 87.3601C86.2587 90.6001 90.0987 95.2801 93.0987 102.72L99.6987 106.56C95.8587 96.6001 89.6187 90.8401 82.0587 87.3601Z" fill="#FF9418"/>
</g>
<path fill-rule="evenodd" clip-rule="evenodd" d="M80.6667 86.88C80.6667 86.88 81.2667 82.08 89.5467 76.68C93.3533 79.2386 96.4166 82.7573 98.4267 86.88C98.4267 86.88 102.867 58.32 116.187 51L129.507 58.68C118.347 63 107.067 81.84 99.7467 106.56C96.2667 97.32 89.4987 89.88 80.6667 86.88Z" fill="url(#paint10_linear_297_4882)"/>
<g opacity="0.91">
<path fill-rule="evenodd" clip-rule="evenodd" d="M98.3787 86.88C98.3787 86.88 102.819 58.32 116.139 51L129.579 58.68C118.419 62.88 107.139 81.84 99.8187 106.56C96.2187 97.32 89.4987 89.88 80.6187 86.88C80.6187 86.88 81.2187 82.2 89.4987 76.68C93.3327 79.2074 96.4033 82.7344 98.3787 86.88ZM128.379 58.56L116.139 51.48C104.37 58.2528 99.6888 82.5923 98.9596 86.3836C98.9007 86.6899 98.8676 86.8621 98.8587 86.88L98.6187 88.44L97.8987 87C96.0248 83.0305 93.1249 79.6335 89.4987 77.16C83.1387 81.48 81.5787 85.32 81.2187 86.52C89.1387 89.4 95.8587 96.12 99.6987 105.12C107.067 81 117.867 63.36 128.379 58.56Z" fill="url(#paint11_linear_297_4882)"/>
</g>
<g opacity="0.75">
<path opacity="0.9" fill-rule="evenodd" clip-rule="evenodd" d="M46.5387 72.3599V72.8399C46.5347 75.4566 46.7757 78.068 47.2587 80.6399L75.2187 108.6L77.4987 105.12L78.2187 104.04L46.5387 72.3599Z" fill="url(#paint12_linear_297_4882)"/>
<path opacity="0.9" fill-rule="evenodd" clip-rule="evenodd" d="M57.8667 59.1599C54.328 60.7354 50.3935 61.1959 46.5867 60.4799V62.9999L81.7467 98.1599C83.5467 94.9199 85.3467 91.5599 86.9067 88.1999L57.8667 59.1599Z" fill="url(#paint13_linear_297_4882)"/>
<path opacity="0.9" fill-rule="evenodd" clip-rule="evenodd" d="M92.9787 72.36C93.3387 71.28 93.6987 70.08 94.0587 68.88C94.6587 66.72 95.2587 64.56 95.7387 62.4L73.0587 39.72L68.3787 47.76L92.9787 72.36Z" fill="url(#paint14_linear_297_4882)"/>
<path opacity="0.9" fill-rule="evenodd" clip-rule="evenodd" d="M90.5787 79.0801C90.8187 78.3601 91.0587 77.6401 91.2987 77.0401L66.0987 51.8401C65.7683 52.4467 65.3653 53.0108 64.8987 53.5201L90.5787 79.0801Z" fill="url(#paint15_linear_297_4882)"/>
<path opacity="0.9" fill-rule="evenodd" clip-rule="evenodd" d="M85.5387 41.8801L97.6587 54.0001C98.0187 51.8401 98.3787 49.6801 98.6187 47.5201L90.9387 39.8401C89.2565 40.7984 87.4343 41.4868 85.5387 41.8801Z" fill="url(#paint16_linear_297_4882)"/>
</g>
<path opacity="0.75" d="M37.5387 55.3201L47.1387 61.2001" stroke="url(#paint17_linear_297_4882)" stroke-width="0.8"/>
<path opacity="0.75" d="M63.9387 35.28L73.1787 40.68" stroke="url(#paint18_linear_297_4882)" stroke-width="0.8"/>
<path opacity="0.75" d="M90.6987 25.0801L99.4587 30.1201" stroke="url(#paint19_linear_297_4882)" stroke-width="0.8"/>
<path fill-rule="evenodd" clip-rule="evenodd" d="M92.4987 2.04004L141.219 49.44L124.899 115.44L76.1787 68.04L92.4987 2.04004V2.04004Z" stroke="#B5BDFC" stroke-width="0.28"/>
<path fill-rule="evenodd" clip-rule="evenodd" d="M76.1787 68.04L124.899 115.44L59.2587 134.16L10.5387 86.76L76.1787 68.04V68.04Z" stroke="#B5BDFC" stroke-width="0.28"/>
<path fill-rule="evenodd" clip-rule="evenodd" d="M92.4987 2.04004L76.1787 68.04L10.5387 86.76L26.7387 20.76L92.4987 2.04004V2.04004Z" stroke="#B5BDFC" stroke-width="0.28"/>
<path fill-rule="evenodd" clip-rule="evenodd" d="M9.93868 88.9201C11.0653 88.9201 11.9787 88.0067 11.9787 86.8801C11.9787 85.7534 11.0653 84.8401 9.93868 84.8401C8.81202 84.8401 7.89868 85.7534 7.89868 86.8801C7.89868 88.0067 8.81202 88.9201 9.93868 88.9201Z" fill="#B6BDFC"/>
<path fill-rule="evenodd" clip-rule="evenodd" d="M26.7387 22.8C27.8653 22.8 28.7787 21.8866 28.7787 20.76C28.7787 19.6333 27.8653 18.72 26.7387 18.72C25.612 18.72 24.6987 19.6333 24.6987 20.76C24.6987 21.8866 25.612 22.8 26.7387 22.8Z" fill="#B6BDFC"/>
<path fill-rule="evenodd" clip-rule="evenodd" d="M75.8187 69.7199C76.9453 69.7199 77.8587 68.8066 77.8587 67.6799C77.8587 66.5532 76.9453 65.6399 75.8187 65.6399C74.692 65.6399 73.7787 66.5532 73.7787 67.6799C73.7787 68.8066 74.692 69.7199 75.8187 69.7199Z" fill="#B6BDFC"/>
<path fill-rule="evenodd" clip-rule="evenodd" d="M125.019 117.36C126.145 117.36 127.059 116.447 127.059 115.32C127.059 114.193 126.145 113.28 125.019 113.28C123.892 113.28 122.979 114.193 122.979 115.32C122.979 116.447 123.892 117.36 125.019 117.36Z" fill="#B6BDFC"/>
<path fill-rule="evenodd" clip-rule="evenodd" d="M92.4987 4.08C93.6253 4.08 94.5387 3.16666 94.5387 2.04C94.5387 0.913339 93.6253 0 92.4987 0C91.372 0 90.4587 0.913339 90.4587 2.04C90.4587 3.16666 91.372 4.08 92.4987 4.08Z" fill="#B6BDFC"/>
<path fill-rule="evenodd" clip-rule="evenodd" d="M59.0186 136.32C60.1453 136.32 61.0586 135.407 61.0586 134.28C61.0586 133.153 60.1453 132.24 59.0186 132.24C57.892 132.24 56.9786 133.153 56.9786 134.28C56.9786 135.407 57.892 136.32 59.0186 136.32Z" fill="#B6BDFC"/>
<path fill-rule="evenodd" clip-rule="evenodd" d="M141.459 51.4799C142.585 51.4799 143.499 50.5666 143.499 49.4399C143.499 48.3132 142.585 47.3999 141.459 47.3999C140.332 47.3999 139.419 48.3132 139.419 49.4399C139.419 50.5666 140.332 51.4799 141.459 51.4799Z" fill="#B6BDFC"/>
<path fill-rule="evenodd" clip-rule="evenodd" d="M65.9787 166.08C65.9787 165.48 65.6584 164.925 65.1387 164.625C64.6189 164.325 63.9784 164.325 63.4587 164.625C62.9389 164.925 62.6187 165.48 62.6187 166.08C62.6215 166.675 62.9417 167.224 63.4587 167.52L64.2987 220.32L65.1387 167.52C65.6556 167.224 65.9758 166.675 65.9787 166.08Z" fill="url(#paint20_linear_297_4882)"/>
<path fill-rule="evenodd" clip-rule="evenodd" d="M83.1387 138.72C83.1387 137.328 82.0104 136.2 80.6187 136.2C79.2269 136.2 78.0987 137.328 78.0987 138.72C78.0923 139.632 78.6039 140.469 79.4187 140.88L80.6667 217.2H80.5467L81.7467 140.88C82.5895 140.49 83.1317 139.649 83.1387 138.72Z" fill="url(#paint21_linear_297_4882)"/>
<path fill-rule="evenodd" clip-rule="evenodd" d="M98.2587 159.6C98.2587 158.672 97.5065 157.92 96.5787 157.92C95.6508 157.92 94.8987 158.672 94.8987 159.6C94.9015 160.195 95.2217 160.744 95.7387 161.04L96.5787 213.84L97.4187 161.04C97.9357 160.744 98.2558 160.195 98.2587 159.6Z" fill="url(#paint22_linear_297_4882)"/>
<path fill-rule="evenodd" clip-rule="evenodd" d="M135.339 81.1201H23.9786L44.2586 182.64C44.2793 183.326 44.3596 184.008 44.4986 184.68C45.4586 189 48.8186 193.2 54.5786 196.56C68.4986 204.6 90.8186 204.6 104.619 196.56C110.259 193.32 113.619 189.12 114.579 184.8C114.718 184.088 114.798 183.365 114.819 182.64L135.339 81.1201Z" fill="url(#paint23_linear_297_4882)"/>
<defs>
<linearGradient id="paint0_linear_297_4882" x1="8.63068" y1="232.737" x2="152.067" y2="232.737" gradientUnits="userSpaceOnUse">
<stop stop-color="#DEB856"/>
<stop offset="0.25" stop-color="#E89F49"/>
<stop offset="0.54" stop-color="#FEB877"/>
<stop offset="0.85" stop-color="#EEA34A"/>
<stop offset="1" stop-color="#FECB90"/>
</linearGradient>
<linearGradient id="paint1_linear_297_4882" x1="229.434" y1="254.016" x2="229.434" y2="81.6479" gradientUnits="userSpaceOnUse">
<stop stop-color="#EE821F"/>
<stop offset="0.19" stop-color="#E9922C"/>
<stop offset="0.41" stop-color="#EFAF4F"/>
<stop offset="0.65" stop-color="#FFD79B"/>
<stop offset="0.89" stop-color="#F3C682"/>
<stop offset="1" stop-color="#F9AC38"/>
</linearGradient>
<linearGradient id="paint2_linear_297_4882" x1="118.244" y1="-536.52" x2="118.244" y2="-581.364" gradientUnits="userSpaceOnUse">
<stop stop-color="#7348BF"/>
<stop offset="0.25" stop-color="#784AC1"/>
<stop offset="0.54" stop-color="#854FC8"/>
<stop offset="0.85" stop-color="#9C58D4"/>
<stop offset="1" stop-color="#AA5DDB"/>
</linearGradient>
<linearGradient id="paint3_linear_297_4882" x1="15.3264" y1="-609.72" x2="15.3264" y2="-544.176" gradientUnits="userSpaceOnUse">
<stop stop-color="#7348BF"/>
<stop offset="0.25" stop-color="#784AC1"/>
<stop offset="0.54" stop-color="#854FC8"/>
<stop offset="0.85" stop-color="#9C58D4"/>
<stop offset="1" stop-color="#AA5DDB"/>
</linearGradient>
<linearGradient id="paint4_linear_297_4882" x1="64.5025" y1="123.283" x2="123.832" y2="88.2837" gradientUnits="userSpaceOnUse">
<stop stop-color="#FFD13E"/>
<stop offset="0.05" stop-color="#FECD3B"/>
<stop offset="0.31" stop-color="#F8BD32"/>
<stop offset="0.6" stop-color="#F5B42C"/>
<stop offset="1" stop-color="#F4B12A"/>
</linearGradient>
<linearGradient id="paint5_linear_297_4882" x1="46.4787" y1="111.545" x2="99.7707" y2="111.545" gradientUnits="userSpaceOnUse">
<stop stop-color="#373538"/>
<stop offset="0.19" stop-color="#403645"/>
<stop offset="0.41" stop-color="#312436"/>
<stop offset="0.64" stop-color="#3A2440"/>
<stop offset="0.87" stop-color="#492351"/>
<stop offset="1" stop-color="#230C27"/>
</linearGradient>
<linearGradient id="paint6_linear_297_4882" x1="46.4787" y1="111.48" x2="99.7587" y2="111.48" gradientUnits="userSpaceOnUse">
<stop stop-color="white" stop-opacity="0.01"/>
<stop offset="1" stop-color="white" stop-opacity="0.85"/>
</linearGradient>
<linearGradient id="paint7_linear_297_4882" x1="36.5674" y1="-418.31" x2="95.0881" y2="-395.721" gradientUnits="userSpaceOnUse">
<stop stop-color="#121212"/>
<stop offset="0.25" stop-color="#0B0B0C"/>
<stop offset="0.54" stop-color="#07040B"/>
<stop offset="0.85" stop-color="#030204"/>
<stop offset="1" stop-color="#1B1320"/>
</linearGradient>
<linearGradient id="paint8_linear_297_4882" x1="96.2349" y1="45.8946" x2="88.7675" y2="81.1401" gradientUnits="userSpaceOnUse">
<stop stop-color="#FFCF5C"/>
<stop offset="0.22" stop-color="#FFCB57"/>
<stop offset="0.47" stop-color="#FFBF4A"/>
<stop offset="0.74" stop-color="#FFAB33"/>
<stop offset="1" stop-color="#FF9115"/>
</linearGradient>
<linearGradient id="paint9_linear_297_4882" x1="72.5007" y1="-448.388" x2="87.7375" y2="-444.45" gradientUnits="userSpaceOnUse">
<stop stop-color="#FFCF5C"/>
<stop offset="0.22" stop-color="#FFCB57"/>
<stop offset="0.47" stop-color="#FFBF4A"/>
<stop offset="0.74" stop-color="#FFAB33"/>
<stop offset="1" stop-color="#FF9115"/>
</linearGradient>
<linearGradient id="paint10_linear_297_4882" x1="134.77" y1="-436.419" x2="111.99" y2="-484.81" gradientUnits="userSpaceOnUse">
<stop stop-color="#FFCF5C"/>
<stop offset="0.22" stop-color="#FFCB57"/>
<stop offset="0.47" stop-color="#FFBF4A"/>
<stop offset="0.74" stop-color="#FFAB33"/>
<stop offset="1" stop-color="#FF9115"/>
</linearGradient>
<linearGradient id="paint11_linear_297_4882" x1="121.728" y1="68.9934" x2="95.7796" y2="57.3608" gradientUnits="userSpaceOnUse">
<stop stop-color="white" stop-opacity="0.01"/>
<stop offset="0.93" stop-color="white" stop-opacity="0.79"/>
<stop offset="1" stop-color="white" stop-opacity="0.85"/>
</linearGradient>
<linearGradient id="paint12_linear_297_4882" x1="52.2209" y1="-480.364" x2="26.31" y2="-458.011" gradientUnits="userSpaceOnUse">
<stop stop-color="white" stop-opacity="0.01"/>
<stop offset="1" stop-color="white" stop-opacity="0.85"/>
</linearGradient>
<linearGradient id="paint13_linear_297_4882" x1="60.6812" y1="-469.012" x2="38.6713" y2="-442.44" gradientUnits="userSpaceOnUse">
<stop stop-color="white" stop-opacity="0.01"/>
<stop offset="1" stop-color="white" stop-opacity="0.85"/>
</linearGradient>
<linearGradient id="paint14_linear_297_4882" x1="82.0013" y1="-454.95" x2="55.3746" y2="-433.818" gradientUnits="userSpaceOnUse">
<stop stop-color="white" stop-opacity="0.01"/>
<stop offset="1" stop-color="white" stop-opacity="0.85"/>
</linearGradient>
<linearGradient id="paint15_linear_297_4882" x1="73.0252" y1="-459.55" x2="49.3578" y2="-434.44" gradientUnits="userSpaceOnUse">
<stop stop-color="#F1EAEA" stop-opacity="0.01"/>
<stop offset="1" stop-color="white" stop-opacity="0.85"/>
</linearGradient>
<linearGradient id="paint16_linear_297_4882" x1="91.6724" y1="-444.165" x2="66.8815" y2="-420.284" gradientUnits="userSpaceOnUse">
<stop stop-color="white" stop-opacity="0.01"/>
<stop offset="1" stop-color="white" stop-opacity="0.85"/>
</linearGradient>
<linearGradient id="paint17_linear_297_4882" x1="37.3467" y1="-429.247" x2="47.3547" y2="-429.247" gradientUnits="userSpaceOnUse">
<stop stop-color="white" stop-opacity="0.01"/>
<stop offset="1" stop-color="white" stop-opacity="0.85"/>
</linearGradient>
<linearGradient id="paint18_linear_297_4882" x1="63.6987" y1="-409.209" x2="73.3587" y2="-409.209" gradientUnits="userSpaceOnUse">
<stop stop-color="white" stop-opacity="0.01"/>
<stop offset="1" stop-color="white" stop-opacity="0.85"/>
</linearGradient>
<linearGradient id="paint19_linear_297_4882" x1="90.5067" y1="-399.014" x2="99.6747" y2="-399.014" gradientUnits="userSpaceOnUse">
<stop stop-color="white" stop-opacity="0.01"/>
<stop offset="1" stop-color="white" stop-opacity="0.85"/>
</linearGradient>
<linearGradient id="paint20_linear_297_4882" x1="66.0035" y1="202.046" x2="57.4594" y2="200.036" gradientUnits="userSpaceOnUse">
<stop stop-color="white" stop-opacity="0.01"/>
<stop offset="1" stop-color="white" stop-opacity="0.8"/>
</linearGradient>
<linearGradient id="paint21_linear_297_4882" x1="79.9126" y1="-577.937" x2="66.8996" y2="-574.678" gradientUnits="userSpaceOnUse">
<stop stop-color="white" stop-opacity="0.01"/>
<stop offset="1" stop-color="white" stop-opacity="0.8"/>
</linearGradient>
<linearGradient id="paint22_linear_297_4882" x1="96.1219" y1="-578.842" x2="87.5778" y2="-576.831" gradientUnits="userSpaceOnUse">
<stop stop-color="white" stop-opacity="0.01"/>
<stop offset="1" stop-color="white" stop-opacity="0.8"/>
</linearGradient>
<linearGradient id="paint23_linear_297_4882" x1="18.7503" y1="83.6641" x2="18.7503" y2="216.54" gradientUnits="userSpaceOnUse">
<stop stop-color="#FBA11B" stop-opacity="0.01"/>
<stop offset="0.21" stop-color="#F28724" stop-opacity="0.21"/>
<stop offset="0.55" stop-color="#ED9C23" stop-opacity="0.55"/>
<stop offset="0.9899" stop-color="#F89624"/>
<stop offset="0.99" stop-color="#E97E1B" stop-opacity="0.99"/>
</linearGradient>
</defs>
</svg>
