<svg width="58" height="58" viewBox="0 0 58 58" fill="none" xmlns="http://www.w3.org/2000/svg">
<g filter="url(#filter0_d_127_2704)">
<path fill-rule="evenodd" clip-rule="evenodd" d="M29 31C33.9706 31 38 26.9706 38 22C38 17.0294 33.9706 13 29 13C24.0294 13 20 17.0294 20 22C20 26.9706 24.0294 31 29 31Z" fill="white"/>
</g>
<path d="M29 29C32.866 29 36 25.866 36 22C36 18.134 32.866 15 29 15C25.134 15 22 18.134 22 22C22 25.866 25.134 29 29 29Z" fill="#00C48C"/>
<path d="M31.1836 19.974C31.3989 19.7587 31.7481 19.7587 31.9635 19.974C32.1788 20.1894 32.1788 20.5386 31.9635 20.7539L28.6547 24.0627C28.4393 24.2781 28.0901 24.2781 27.8748 24.0627L26.0365 22.2245C25.8212 22.0091 25.8212 21.66 26.0365 21.4446C26.2519 21.2292 26.6011 21.2292 26.8164 21.4446L28.2647 22.8929L31.1836 19.974Z" fill="white"/>
<defs>
<filter id="filter0_d_127_2704" x="0" y="0" width="58" height="58" filterUnits="userSpaceOnUse" color-interpolation-filters="sRGB">
<feFlood flood-opacity="0" result="BackgroundImageFix"/>
<feColorMatrix in="SourceAlpha" type="matrix" values="0 0 0 0 0 0 0 0 0 0 0 0 0 0 0 0 0 0 127 0" result="hardAlpha"/>
<feOffset dy="7"/>
<feGaussianBlur stdDeviation="10"/>
<feColorMatrix type="matrix" values="0 0 0 0 0 0 0 0 0 0 0 0 0 0 0 0 0 0 0.07 0"/>
<feBlend mode="normal" in2="BackgroundImageFix" result="effect1_dropShadow_127_2704"/>
<feBlend mode="normal" in="SourceGraphic" in2="effect1_dropShadow_127_2704" result="shape"/>
</filter>
</defs>
</svg>
