<svg width="166" height="151" viewBox="0 0 166 151" fill="none"
    xmlns="http://www.w3.org/2000/svg">
    <path opacity="0.14" d="M83 151C128.84 151 166 143.488 166 134.222C166 124.956 128.84 117.444 83 117.444C37.1604 117.444 0 124.956 0 134.222C0 143.488 37.1604 151 83 151Z" fill="#FFA26B"/>
    <path opacity="0.3" d="M83 141.413C106.813 141.413 126.117 138.193 126.117 134.222C126.117 130.251 106.813 127.032 83 127.032C59.1872 127.032 39.8831 130.251 39.8831 134.222C39.8831 138.193 59.1872 141.413 83 141.413Z" fill="#FFA26B"/>
    <path fill-rule="evenodd" clip-rule="evenodd" d="M14.369 38.4134C14.0129 41.1954 14.0129 44.5077 14.0129 51.1323C14.0129 57.7569 14.0129 61.0692 14.369 63.8511C16.9125 83.7211 32.5564 99.365 52.4264 101.908C55.2083 102.265 58.5206 102.265 65.1452 102.265H69.5109L80.8687 113.729C82.0425 114.914 83.9574 114.914 85.1312 113.729L96.4891 102.265H100.855C107.479 102.265 110.792 102.265 113.574 101.908C133.444 99.365 149.087 83.7211 151.631 63.8511C151.987 61.0692 151.987 57.7569 151.987 51.1323C151.987 44.5077 151.987 41.1954 151.631 38.4134C149.087 18.5434 133.444 2.89952 113.574 0.356096C110.792 0 107.479 0 100.855 0H65.1452C58.5206 0 55.2083 0 52.4264 0.356096C32.5564 2.89952 16.9125 18.5434 14.369 38.4134Z" fill="#FFA26B"/>
</svg>
