<svg width="14" height="14" viewBox="0 0 14 14" fill="none"
    xmlns="http://www.w3.org/2000/svg">
    <path d="M9.0125 5.4875C8.6625 5.1375 8.6625 4.6125 9.0125 4.2625L12.5125 0.7625C12.8625 0.4125 13.3875 0.4125 13.7375 0.7625C14.0875 1.1125 14.0875 1.6375 13.7375 1.9875L10.2375 5.4875C9.8875 5.8375 9.3625 5.8375 9.0125 5.4875ZM9.0125 10.7375C8.6625 10.3875 8.6625 9.8625 9.0125 9.5125L12.5125 6.0125C12.8625 5.6625 13.3875 5.6625 13.7375 6.0125C14.0875 6.3625 14.0875 6.8875 13.7375 7.2375L10.2375 10.7375C9.8875 11.0875 9.3625 11.0875 9.0125 10.7375ZM2.8875 6.3625C2.5375 6.0125 2.5375 5.4875 2.8875 5.1375L6.3875 1.6375C6.7375 1.2875 7.2625 1.2875 7.6125 1.6375C7.9625 1.9875 7.9625 2.5125 7.6125 2.8625L4.1125 6.3625C3.7625 6.7125 3.2375 6.7125 2.8875 6.3625ZM0.2625 8.9875C-0.0875 8.6375 -0.0875 8.1125 0.2625 7.7625L1.1375 6.8875C1.4875 6.5375 2.0125 6.5375 2.3625 6.8875C2.7125 7.2375 2.7125 7.7625 2.3625 8.1125L1.4875 8.9875C1.1375 9.3375 0.6125 9.3375 0.2625 8.9875ZM6.3875 8.1125C6.0375 7.7625 6.0375 7.2375 6.3875 6.8875L7.2625 6.0125C7.6125 5.6625 8.1375 5.6625 8.4875 6.0125C8.8375 6.3625 8.8375 6.8875 8.4875 7.2375L7.6125 8.1125C7.2625 8.4625 6.7375 8.4625 6.3875 8.1125ZM6.3875 13.3625C6.0375 13.0125 6.0375 12.4875 6.3875 12.1375L7.2625 11.2625C7.6125 10.9125 8.1375 10.9125 8.4875 11.2625C8.8375 11.6125 8.8375 12.1375 8.4875 12.4875L7.6125 13.3625C7.2625 13.7125 6.7375 13.7125 6.3875 13.3625Z" fill="#FFA26B"/>
</svg>
