<svg width="14" height="13" viewBox="0 0 14 13" fill="none"
    xmlns="http://www.w3.org/2000/svg">
    <path d="M6.125 5.25H0V3.5H6.125C6.65 3.5 7 3.15 7 2.625C7 2.1 6.65 1.75 6.125 1.75C5.6 1.75 5.25 2.1 5.25 2.625H3.5C3.5 1.1375 4.6375 0 6.125 0C7.6125 0 8.75 1.1375 8.75 2.625C8.75 4.1125 7.6125 5.25 6.125 5.25ZM11.375 12.25C9.8875 12.25 8.75 11.1125 8.75 9.625H10.5C10.5 10.15 10.85 10.5 11.375 10.5C11.9 10.5 12.25 10.15 12.25 9.625C12.25 9.1 11.9 8.75 11.375 8.75H0V7H11.375C12.8625 7 14 8.1375 14 9.625C14 11.1125 12.8625 12.25 11.375 12.25Z" fill="#FFA26B"/>
</svg>
